%TF.GenerationSoftware,KiCad,Pcbnew,10.0.6*%
%TF.CreationDate,2026-09-02T23:36:12+03:00*%
%TF.ProjectId,solder-pcb,736f6c64-6572-42d7-9063-622e6b696361,rev?*%
%TF.SameCoordinates,Original*%
%TF.FileFunction,Legend,Bot*%
%TF.FilePolarity,Positive*%
%FSLAX46Y46*%
G04 Gerber Fmt 4.6, Leading zero omitted, Abs format (unit mm)*
G04 Created by KiCad (PCBNEW 10.0.6) date 2026-09-02 23:36:12*
%MOMM*%
%LPD*%
G01*
G04 APERTURE LIST*
%ADD10C,0.300000*%
%ADD11C,0.000000*%
G04 APERTURE END LIST*
D10*
X188321427Y-94749757D02*
X188464285Y-94678328D01*
X188464285Y-94678328D02*
X188678570Y-94678328D01*
X188678570Y-94678328D02*
X188892856Y-94749757D01*
X188892856Y-94749757D02*
X189035713Y-94892614D01*
X189035713Y-94892614D02*
X189107142Y-95035471D01*
X189107142Y-95035471D02*
X189178570Y-95321185D01*
X189178570Y-95321185D02*
X189178570Y-95535471D01*
X189178570Y-95535471D02*
X189107142Y-95821185D01*
X189107142Y-95821185D02*
X189035713Y-95964042D01*
X189035713Y-95964042D02*
X188892856Y-96106900D01*
X188892856Y-96106900D02*
X188678570Y-96178328D01*
X188678570Y-96178328D02*
X188535713Y-96178328D01*
X188535713Y-96178328D02*
X188321427Y-96106900D01*
X188321427Y-96106900D02*
X188249999Y-96035471D01*
X188249999Y-96035471D02*
X188249999Y-95535471D01*
X188249999Y-95535471D02*
X188535713Y-95535471D01*
X187392856Y-94678328D02*
X187392856Y-95035471D01*
X187749999Y-94892614D02*
X187392856Y-95035471D01*
X187392856Y-95035471D02*
X187035713Y-94892614D01*
X187607142Y-95321185D02*
X187392856Y-95035471D01*
X187392856Y-95035471D02*
X187178570Y-95321185D01*
X186249999Y-94678328D02*
X186249999Y-95035471D01*
X186607142Y-94892614D02*
X186249999Y-95035471D01*
X186249999Y-95035471D02*
X185892856Y-94892614D01*
X186464285Y-95321185D02*
X186249999Y-95035471D01*
X186249999Y-95035471D02*
X186035713Y-95321185D01*
X185107142Y-94678328D02*
X185107142Y-95035471D01*
X185464285Y-94892614D02*
X185107142Y-95035471D01*
X185107142Y-95035471D02*
X184749999Y-94892614D01*
X185321428Y-95321185D02*
X185107142Y-95035471D01*
X185107142Y-95035471D02*
X184892856Y-95321185D01*
X134321427Y-50749757D02*
X134464285Y-50678328D01*
X134464285Y-50678328D02*
X134678570Y-50678328D01*
X134678570Y-50678328D02*
X134892856Y-50749757D01*
X134892856Y-50749757D02*
X135035713Y-50892614D01*
X135035713Y-50892614D02*
X135107142Y-51035471D01*
X135107142Y-51035471D02*
X135178570Y-51321185D01*
X135178570Y-51321185D02*
X135178570Y-51535471D01*
X135178570Y-51535471D02*
X135107142Y-51821185D01*
X135107142Y-51821185D02*
X135035713Y-51964042D01*
X135035713Y-51964042D02*
X134892856Y-52106900D01*
X134892856Y-52106900D02*
X134678570Y-52178328D01*
X134678570Y-52178328D02*
X134535713Y-52178328D01*
X134535713Y-52178328D02*
X134321427Y-52106900D01*
X134321427Y-52106900D02*
X134249999Y-52035471D01*
X134249999Y-52035471D02*
X134249999Y-51535471D01*
X134249999Y-51535471D02*
X134535713Y-51535471D01*
X133392856Y-50678328D02*
X133392856Y-51035471D01*
X133749999Y-50892614D02*
X133392856Y-51035471D01*
X133392856Y-51035471D02*
X133035713Y-50892614D01*
X133607142Y-51321185D02*
X133392856Y-51035471D01*
X133392856Y-51035471D02*
X133178570Y-51321185D01*
X132249999Y-50678328D02*
X132249999Y-51035471D01*
X132607142Y-50892614D02*
X132249999Y-51035471D01*
X132249999Y-51035471D02*
X131892856Y-50892614D01*
X132464285Y-51321185D02*
X132249999Y-51035471D01*
X132249999Y-51035471D02*
X132035713Y-51321185D01*
X131107142Y-50678328D02*
X131107142Y-51035471D01*
X131464285Y-50892614D02*
X131107142Y-51035471D01*
X131107142Y-51035471D02*
X130749999Y-50892614D01*
X131321428Y-51321185D02*
X131107142Y-51035471D01*
X131107142Y-51035471D02*
X130892856Y-51321185D01*
X159321427Y-94249757D02*
X159464285Y-94178328D01*
X159464285Y-94178328D02*
X159678570Y-94178328D01*
X159678570Y-94178328D02*
X159892856Y-94249757D01*
X159892856Y-94249757D02*
X160035713Y-94392614D01*
X160035713Y-94392614D02*
X160107142Y-94535471D01*
X160107142Y-94535471D02*
X160178570Y-94821185D01*
X160178570Y-94821185D02*
X160178570Y-95035471D01*
X160178570Y-95035471D02*
X160107142Y-95321185D01*
X160107142Y-95321185D02*
X160035713Y-95464042D01*
X160035713Y-95464042D02*
X159892856Y-95606900D01*
X159892856Y-95606900D02*
X159678570Y-95678328D01*
X159678570Y-95678328D02*
X159535713Y-95678328D01*
X159535713Y-95678328D02*
X159321427Y-95606900D01*
X159321427Y-95606900D02*
X159249999Y-95535471D01*
X159249999Y-95535471D02*
X159249999Y-95035471D01*
X159249999Y-95035471D02*
X159535713Y-95035471D01*
X158392856Y-94178328D02*
X158392856Y-94535471D01*
X158749999Y-94392614D02*
X158392856Y-94535471D01*
X158392856Y-94535471D02*
X158035713Y-94392614D01*
X158607142Y-94821185D02*
X158392856Y-94535471D01*
X158392856Y-94535471D02*
X158178570Y-94821185D01*
X157249999Y-94178328D02*
X157249999Y-94535471D01*
X157607142Y-94392614D02*
X157249999Y-94535471D01*
X157249999Y-94535471D02*
X156892856Y-94392614D01*
X157464285Y-94821185D02*
X157249999Y-94535471D01*
X157249999Y-94535471D02*
X157035713Y-94821185D01*
X156107142Y-94178328D02*
X156107142Y-94535471D01*
X156464285Y-94392614D02*
X156107142Y-94535471D01*
X156107142Y-94535471D02*
X155749999Y-94392614D01*
X156321428Y-94821185D02*
X156107142Y-94535471D01*
X156107142Y-94535471D02*
X155892856Y-94821185D01*
D11*
%TO.C,G\u002A\u002A\u002A*%
G36*
X202919098Y-99865254D02*
G01*
X202881425Y-100014589D01*
X202727216Y-100235051D01*
X202509612Y-100411063D01*
X202289407Y-100482986D01*
X202168220Y-100451747D01*
X201918893Y-100344889D01*
X201591855Y-100180023D01*
X201226348Y-99975868D01*
X200926563Y-99800871D01*
X200575816Y-99597365D01*
X200292210Y-99434183D01*
X200118208Y-99335851D01*
X200096557Y-99323917D01*
X199786243Y-99146141D01*
X199405718Y-98916042D01*
X198929720Y-98618065D01*
X198332987Y-98236657D01*
X197750157Y-97863028D01*
X197146328Y-97480013D01*
X196661705Y-97177711D01*
X196303201Y-96960370D01*
X196077726Y-96832241D01*
X195992192Y-96797572D01*
X195987195Y-96816699D01*
X195967578Y-96973328D01*
X195939484Y-97260850D01*
X195905889Y-97647555D01*
X195869768Y-98101736D01*
X195858866Y-98240317D01*
X195815347Y-98728929D01*
X195768382Y-99174789D01*
X195722944Y-99533478D01*
X195684008Y-99760573D01*
X195677929Y-99787553D01*
X195653194Y-99945646D01*
X195652865Y-100118103D01*
X195682423Y-100335775D01*
X195747350Y-100629509D01*
X195853126Y-101030154D01*
X196005232Y-101568559D01*
X196096757Y-101880959D01*
X196249907Y-102377476D01*
X196395741Y-102821124D01*
X196521228Y-103172800D01*
X196613338Y-103393403D01*
X196638824Y-103444786D01*
X196807262Y-103834367D01*
X196862277Y-104083993D01*
X196874871Y-104141138D01*
X196846093Y-104417542D01*
X196725371Y-104716019D01*
X196652802Y-104844797D01*
X196482990Y-105074913D01*
X196327171Y-105208919D01*
X196183942Y-105289913D01*
X195974393Y-105441322D01*
X195855536Y-105527103D01*
X195630286Y-105634928D01*
X195540090Y-105646357D01*
X195300475Y-105613084D01*
X195033283Y-105526836D01*
X194806108Y-105412081D01*
X194686543Y-105293288D01*
X194677775Y-105279863D01*
X194554827Y-105178429D01*
X194314210Y-105016566D01*
X193985770Y-104813610D01*
X193599355Y-104588900D01*
X193537604Y-104553974D01*
X193127487Y-104320618D01*
X192754293Y-104106069D01*
X192456987Y-103932839D01*
X192274529Y-103823440D01*
X192230356Y-103796030D01*
X192053534Y-103704105D01*
X191924553Y-103706612D01*
X191760458Y-103799726D01*
X191642276Y-103864551D01*
X191249711Y-103949957D01*
X190797074Y-103886846D01*
X190307292Y-103677152D01*
X190117179Y-103574819D01*
X189769066Y-103401981D01*
X189382314Y-103222232D01*
X188996235Y-103052668D01*
X188650142Y-102910384D01*
X188383348Y-102812477D01*
X188235164Y-102776042D01*
X188171111Y-102805759D01*
X188167312Y-102897315D01*
X188165031Y-102952275D01*
X188174364Y-103039059D01*
X188103112Y-103279209D01*
X187931472Y-103495350D01*
X187704441Y-103622050D01*
X187614251Y-103650285D01*
X187505873Y-103737140D01*
X187540467Y-103863419D01*
X187724012Y-104040072D01*
X188062482Y-104278049D01*
X188104405Y-104305621D01*
X188396210Y-104511483D01*
X188633402Y-104701341D01*
X188768037Y-104837199D01*
X188824086Y-104941283D01*
X188828959Y-104961821D01*
X188887499Y-105208549D01*
X188876968Y-105477728D01*
X188790348Y-105668819D01*
X188740318Y-105709088D01*
X188563675Y-105764732D01*
X188303450Y-105748859D01*
X187942201Y-105657557D01*
X187462487Y-105486915D01*
X186846865Y-105233023D01*
X186311397Y-105004671D01*
X185583217Y-104703806D01*
X185012152Y-104481869D01*
X184597873Y-104338748D01*
X184340048Y-104274333D01*
X184238344Y-104288514D01*
X184292431Y-104381181D01*
X184360461Y-104476614D01*
X184385215Y-104698002D01*
X184261280Y-104896603D01*
X184228089Y-104924038D01*
X184180132Y-104953102D01*
X184111461Y-104967990D01*
X184000340Y-104965713D01*
X183825034Y-104943286D01*
X183563806Y-104897720D01*
X183194921Y-104826028D01*
X182696644Y-104725223D01*
X182047238Y-104592318D01*
X181895385Y-104561637D01*
X180796001Y-104369438D01*
X179775430Y-104251805D01*
X178764858Y-104202793D01*
X177695470Y-104216460D01*
X177435123Y-104224991D01*
X176981164Y-104232495D01*
X176602471Y-104229285D01*
X176332675Y-104215893D01*
X176205403Y-104192852D01*
X176129680Y-104086095D01*
X176137070Y-103843302D01*
X176150695Y-103762706D01*
X176144467Y-103638318D01*
X176069670Y-103579837D01*
X175901969Y-103585758D01*
X175617028Y-103654578D01*
X175190513Y-103784792D01*
X174635975Y-103950166D01*
X174023827Y-104096430D01*
X173537784Y-104161969D01*
X173161864Y-104149656D01*
X172672523Y-104047687D01*
X172162363Y-103858911D01*
X171798393Y-103612767D01*
X171757532Y-103555325D01*
X177336708Y-103555325D01*
X177364980Y-103581735D01*
X177494934Y-103599608D01*
X177745245Y-103610861D01*
X178134590Y-103617415D01*
X178681645Y-103621186D01*
X179033159Y-103624364D01*
X179677253Y-103641993D01*
X180222143Y-103677774D01*
X180720068Y-103735796D01*
X181223265Y-103820147D01*
X181567086Y-103886538D01*
X182031852Y-103980163D01*
X182444754Y-104067422D01*
X182744956Y-104135701D01*
X182973791Y-104184757D01*
X183155607Y-104207349D01*
X183208596Y-104188700D01*
X183202692Y-104181511D01*
X183075947Y-104104657D01*
X182823434Y-103987895D01*
X182481315Y-103845078D01*
X182085756Y-103690057D01*
X181672918Y-103536681D01*
X181278965Y-103398803D01*
X180940060Y-103290273D01*
X180692367Y-103224944D01*
X180310588Y-103165132D01*
X179575890Y-103129088D01*
X178810597Y-103175522D01*
X178079384Y-103299065D01*
X177446923Y-103494347D01*
X177391439Y-103518458D01*
X177336708Y-103555325D01*
X171757532Y-103555325D01*
X171587571Y-103316395D01*
X171539781Y-102996528D01*
X172183334Y-102996528D01*
X172186826Y-103030961D01*
X172300292Y-103197991D01*
X172580209Y-103377774D01*
X172672860Y-103422107D01*
X172963805Y-103516149D01*
X173296246Y-103551457D01*
X173694091Y-103525381D01*
X174181249Y-103435277D01*
X174781629Y-103278497D01*
X175519138Y-103052393D01*
X176427922Y-102780209D01*
X177276047Y-102573609D01*
X178082587Y-102435556D01*
X178869155Y-102368198D01*
X179657368Y-102373679D01*
X180468841Y-102454145D01*
X181325187Y-102611743D01*
X182248023Y-102848619D01*
X183258963Y-103166918D01*
X184379622Y-103568786D01*
X185631615Y-104056370D01*
X185895064Y-104162203D01*
X185960616Y-104188700D01*
X186423413Y-104375769D01*
X186893178Y-104567376D01*
X187278035Y-104726198D01*
X187551665Y-104841408D01*
X187687747Y-104902176D01*
X187705341Y-104911126D01*
X187851004Y-104976887D01*
X187863925Y-104961821D01*
X187760048Y-104877113D01*
X187555318Y-104733952D01*
X187265679Y-104543524D01*
X186907076Y-104317016D01*
X186495452Y-104065617D01*
X185665815Y-103587613D01*
X184318238Y-102902264D01*
X183018939Y-102356573D01*
X181776112Y-101953035D01*
X180597953Y-101694149D01*
X179492658Y-101582409D01*
X178468422Y-101620314D01*
X178217969Y-101652478D01*
X177534609Y-101778858D01*
X176863562Y-101968213D01*
X176154809Y-102236281D01*
X175358334Y-102598796D01*
X175283083Y-102635077D01*
X174551061Y-102967106D01*
X173943341Y-103197760D01*
X173443850Y-103330175D01*
X173036512Y-103367486D01*
X172705255Y-103312831D01*
X172434003Y-103169344D01*
X172369537Y-103112787D01*
X172375355Y-103069256D01*
X172504754Y-103049299D01*
X172784108Y-103043430D01*
X173117866Y-103017822D01*
X173674154Y-102863880D01*
X174153808Y-102587183D01*
X174517919Y-102206510D01*
X174534224Y-102182161D01*
X174694836Y-101893773D01*
X174865922Y-101519077D01*
X174930000Y-101350832D01*
X175507143Y-101350832D01*
X175538541Y-101342588D01*
X175607834Y-101204705D01*
X175702821Y-100952345D01*
X175753524Y-100764192D01*
X175813982Y-100381991D01*
X175833293Y-100004254D01*
X175823181Y-99468750D01*
X175708002Y-100206553D01*
X175692066Y-100307482D01*
X175632083Y-100669456D01*
X175578048Y-100970815D01*
X175540044Y-101154644D01*
X175525839Y-101214275D01*
X175507143Y-101350832D01*
X174930000Y-101350832D01*
X175013096Y-101132652D01*
X175057158Y-101000078D01*
X175142739Y-100714079D01*
X175194169Y-100461471D01*
X175217006Y-100189911D01*
X175216808Y-99847054D01*
X175199132Y-99380555D01*
X175107383Y-98485455D01*
X174864855Y-97474163D01*
X174483293Y-96552115D01*
X174008936Y-95796828D01*
X175996188Y-95796828D01*
X176107498Y-95890938D01*
X176347325Y-96061202D01*
X176725348Y-96317625D01*
X176815308Y-96379420D01*
X177219143Y-96678329D01*
X177648728Y-97022763D01*
X178025050Y-97349965D01*
X178191229Y-97510319D01*
X178509740Y-97847217D01*
X178849554Y-98235852D01*
X179186980Y-98646184D01*
X179498328Y-99048175D01*
X179759909Y-99411785D01*
X179948033Y-99706975D01*
X180039011Y-99903707D01*
X180041475Y-99912966D01*
X180094024Y-100004254D01*
X180130526Y-100067664D01*
X180260757Y-100158367D01*
X180378357Y-100163393D01*
X180429515Y-100061057D01*
X180404413Y-99969837D01*
X180307950Y-99745443D01*
X180155967Y-99435903D01*
X179966494Y-99079440D01*
X179652447Y-98555851D01*
X179275094Y-98052136D01*
X178806739Y-97550764D01*
X178444918Y-97218891D01*
X177897368Y-96784120D01*
X177321052Y-96389577D01*
X176763229Y-96066997D01*
X176271157Y-95848114D01*
X176120416Y-95797059D01*
X176003720Y-95768869D01*
X175996188Y-95796828D01*
X174008936Y-95796828D01*
X173968026Y-95731690D01*
X173324382Y-95025268D01*
X173289171Y-94992993D01*
X173063962Y-94781638D01*
X172905002Y-94623993D01*
X172844793Y-94552123D01*
X172852762Y-94544146D01*
X172978533Y-94539399D01*
X173228366Y-94562892D01*
X173564979Y-94609124D01*
X173951093Y-94672594D01*
X174349425Y-94747799D01*
X174722695Y-94829240D01*
X175771441Y-95129487D01*
X176925764Y-95604043D01*
X177965077Y-96206894D01*
X178896702Y-96943982D01*
X179727963Y-97821251D01*
X180466183Y-98844644D01*
X181118683Y-100020103D01*
X181139221Y-100061057D01*
X181318540Y-100418631D01*
X181480264Y-100720477D01*
X181591550Y-100906595D01*
X181645574Y-100969169D01*
X181635512Y-100900386D01*
X181554541Y-100692431D01*
X181395837Y-100337490D01*
X181166093Y-99846061D01*
X180861975Y-99216667D01*
X180596500Y-98704121D01*
X180352101Y-98280681D01*
X180111213Y-97918602D01*
X180072290Y-97868455D01*
X181041357Y-97868455D01*
X181062563Y-98422278D01*
X181254727Y-99017358D01*
X181309834Y-99129860D01*
X181617356Y-99598866D01*
X182053618Y-100102195D01*
X182590845Y-100614899D01*
X183201261Y-101112029D01*
X183857090Y-101568636D01*
X184530556Y-101959770D01*
X184740449Y-102066647D01*
X185083821Y-102233079D01*
X185395627Y-102375213D01*
X185634096Y-102474267D01*
X185757461Y-102511458D01*
X185763363Y-102511955D01*
X185885678Y-102566956D01*
X186070300Y-102685241D01*
X186095351Y-102702575D01*
X186269533Y-102794908D01*
X186371631Y-102801749D01*
X186384998Y-102794897D01*
X186508072Y-102826860D01*
X186692405Y-102939287D01*
X186744687Y-102976133D01*
X186895335Y-103056263D01*
X186955904Y-103043265D01*
X186955968Y-103041267D01*
X187036492Y-102978456D01*
X187223590Y-102952431D01*
X187377269Y-102945529D01*
X187443163Y-102897315D01*
X187394241Y-102771118D01*
X187357959Y-102716504D01*
X187187626Y-102536274D01*
X186960761Y-102352195D01*
X186760083Y-102189558D01*
X186634077Y-101996233D01*
X186573899Y-101717708D01*
X186537547Y-101529363D01*
X186456361Y-101191772D01*
X186339722Y-100743741D01*
X186195989Y-100215450D01*
X186033522Y-99637080D01*
X185860682Y-99038811D01*
X185685828Y-98450824D01*
X185517319Y-97903299D01*
X185448147Y-97657965D01*
X185449245Y-97522119D01*
X185550403Y-97502841D01*
X185771186Y-97574815D01*
X185772990Y-97575500D01*
X186065227Y-97629888D01*
X186261720Y-97538013D01*
X186358258Y-97301832D01*
X186363080Y-97265161D01*
X186354013Y-97096830D01*
X186259012Y-96952995D01*
X186063157Y-96792819D01*
X186398254Y-96792819D01*
X186422695Y-96833484D01*
X186601396Y-96918849D01*
X186715095Y-96972264D01*
X186825707Y-97057684D01*
X186787918Y-97126403D01*
X186770116Y-97138043D01*
X186731905Y-97182315D01*
X186758861Y-97232352D01*
X186871369Y-97298305D01*
X187089812Y-97390325D01*
X187434575Y-97518563D01*
X187926043Y-97693170D01*
X188852084Y-98019084D01*
X189090934Y-98652057D01*
X189116404Y-98720018D01*
X189221069Y-99010937D01*
X189289392Y-99220507D01*
X189307633Y-99307183D01*
X189238174Y-99303990D01*
X189039272Y-99269668D01*
X188760102Y-99210700D01*
X188336866Y-99117828D01*
X187970705Y-99046702D01*
X187735645Y-99016385D01*
X187610295Y-99024301D01*
X187573265Y-99067879D01*
X187588223Y-99110333D01*
X187705556Y-99160069D01*
X187766509Y-99170725D01*
X187837848Y-99254207D01*
X187803492Y-99300796D01*
X187661459Y-99292361D01*
X187553848Y-99276779D01*
X187485070Y-99326519D01*
X187488931Y-99341262D01*
X187595491Y-99415432D01*
X187802475Y-99476205D01*
X187918181Y-99501231D01*
X188035794Y-99554542D01*
X188000912Y-99619208D01*
X187948782Y-99670455D01*
X187970140Y-99742922D01*
X188027370Y-99767139D01*
X188226613Y-99848375D01*
X188524689Y-99968356D01*
X188881850Y-100111034D01*
X189705365Y-100438889D01*
X189961908Y-101100347D01*
X189997988Y-101193582D01*
X190110393Y-101487067D01*
X190189061Y-101697195D01*
X190218774Y-101783495D01*
X190174948Y-101775906D01*
X190006936Y-101720709D01*
X189756077Y-101628388D01*
X189550956Y-101552245D01*
X188890697Y-101336615D01*
X188276052Y-101179181D01*
X187735019Y-101085198D01*
X187295594Y-101059917D01*
X186985775Y-101108593D01*
X186931319Y-101154153D01*
X187018256Y-101210396D01*
X187264584Y-101285475D01*
X187472005Y-101342068D01*
X187598288Y-101388368D01*
X187582838Y-101419353D01*
X187442189Y-101450375D01*
X187378997Y-101462639D01*
X187292050Y-101493080D01*
X187312824Y-101538823D01*
X187459653Y-101617461D01*
X187750870Y-101746588D01*
X187953288Y-101834368D01*
X188143544Y-101917124D01*
X188315607Y-101992637D01*
X188499293Y-102074233D01*
X188724418Y-102175239D01*
X189020799Y-102308981D01*
X189418250Y-102488785D01*
X189946589Y-102727978D01*
X189966559Y-102737019D01*
X190458372Y-102957567D01*
X190818474Y-103108198D01*
X191074575Y-103192277D01*
X191254385Y-103213170D01*
X191385613Y-103174241D01*
X191495969Y-103078857D01*
X191613162Y-102930382D01*
X191721401Y-102827697D01*
X191935393Y-102788404D01*
X192168390Y-102916491D01*
X192356929Y-103058574D01*
X192592548Y-103203123D01*
X192595531Y-103204745D01*
X193038825Y-103450819D01*
X193500247Y-103715655D01*
X193951097Y-103981817D01*
X194362670Y-104231868D01*
X194706266Y-104448373D01*
X194953182Y-104613894D01*
X195074716Y-104710998D01*
X195211310Y-104830456D01*
X195389347Y-104923956D01*
X195537225Y-104952670D01*
X195598959Y-104896761D01*
X195646441Y-104813245D01*
X195799443Y-104709386D01*
X195811298Y-104703571D01*
X195977869Y-104543623D01*
X196103505Y-104292353D01*
X196158596Y-104083993D01*
X196145615Y-103944893D01*
X196046347Y-103834375D01*
X195921800Y-103674282D01*
X195826929Y-103437500D01*
X195825463Y-103430972D01*
X195762855Y-103194541D01*
X195651085Y-102814304D01*
X195497233Y-102312587D01*
X195308381Y-101711715D01*
X195091607Y-101034014D01*
X194853992Y-100301810D01*
X194602617Y-99537428D01*
X194344561Y-98763194D01*
X194275074Y-98556876D01*
X194072816Y-97968335D01*
X193910419Y-97520765D01*
X193778877Y-97192827D01*
X193669180Y-96963183D01*
X193572322Y-96810492D01*
X193479294Y-96713415D01*
X193479151Y-96713299D01*
X193299932Y-96587210D01*
X193151526Y-96567132D01*
X192940073Y-96640347D01*
X192731351Y-96769894D01*
X192521276Y-97048983D01*
X192487857Y-97130794D01*
X192445945Y-97307860D01*
X192467432Y-97501172D01*
X192555733Y-97783509D01*
X192616049Y-97952502D01*
X192752698Y-98325844D01*
X192931159Y-98806555D01*
X193138363Y-99359982D01*
X193361239Y-99951469D01*
X193586714Y-100546364D01*
X193801717Y-101110012D01*
X193993178Y-101607758D01*
X194148025Y-102004949D01*
X194218800Y-102187850D01*
X194338744Y-102515817D01*
X194421547Y-102767276D01*
X194452431Y-102898834D01*
X194407164Y-102931731D01*
X194242725Y-102903122D01*
X193945978Y-102802285D01*
X193504341Y-102625595D01*
X193473952Y-102612960D01*
X192985303Y-102415344D01*
X192534308Y-102242604D01*
X192152082Y-102105896D01*
X191869742Y-102016378D01*
X191718404Y-101985207D01*
X191715364Y-101986000D01*
X191757385Y-102044220D01*
X191894792Y-102166170D01*
X192115279Y-102346126D01*
X191894792Y-102287317D01*
X191874981Y-102281949D01*
X191596584Y-102175653D01*
X191397461Y-102011834D01*
X191244352Y-101751268D01*
X191103996Y-101354732D01*
X191044733Y-101151455D01*
X190973976Y-100838974D01*
X190960741Y-100599160D01*
X190998572Y-100371826D01*
X191016682Y-100298796D01*
X191046104Y-100103635D01*
X190995556Y-99989124D01*
X190842683Y-99885532D01*
X190767673Y-99834485D01*
X190634083Y-99682133D01*
X190509050Y-99433509D01*
X190370926Y-99050281D01*
X190142975Y-98354956D01*
X190395732Y-98410470D01*
X190502563Y-98427800D01*
X190664370Y-98390840D01*
X190806753Y-98224442D01*
X190836913Y-98176902D01*
X190906242Y-98017343D01*
X190856641Y-97946774D01*
X190811135Y-97919609D01*
X190748265Y-97781649D01*
X190712438Y-97714058D01*
X190553628Y-97584309D01*
X190310905Y-97450017D01*
X190142811Y-97368646D01*
X189891938Y-97233922D01*
X189734273Y-97131800D01*
X189699031Y-97108373D01*
X189491650Y-97035895D01*
X189223543Y-96997403D01*
X189138501Y-96990441D01*
X188832606Y-96947596D01*
X188444377Y-96877267D01*
X188037219Y-96790511D01*
X187977506Y-96776841D01*
X187419758Y-96663335D01*
X187017274Y-96610967D01*
X186773360Y-96619982D01*
X186691320Y-96690625D01*
X186647851Y-96746309D01*
X186492883Y-96782271D01*
X186398254Y-96792819D01*
X186063157Y-96792819D01*
X186044515Y-96777573D01*
X185942989Y-96706999D01*
X185652264Y-96535309D01*
X185397854Y-96421208D01*
X185362692Y-96409020D01*
X185178767Y-96321662D01*
X185103820Y-96242813D01*
X185089616Y-96220792D01*
X184955099Y-96178324D01*
X184724584Y-96161458D01*
X184634484Y-96158613D01*
X184388952Y-96121655D01*
X184239515Y-96055625D01*
X184147862Y-95995203D01*
X184027848Y-96055625D01*
X183963899Y-96091975D01*
X183750936Y-96141883D01*
X183470592Y-96161458D01*
X182981823Y-96203140D01*
X182402781Y-96360511D01*
X181887398Y-96617376D01*
X181471449Y-96955009D01*
X181190711Y-97354686D01*
X181041357Y-97868455D01*
X180072290Y-97868455D01*
X179856269Y-97590144D01*
X179569704Y-97267562D01*
X179233951Y-96923114D01*
X178779884Y-96509131D01*
X177867194Y-95852992D01*
X176838527Y-95308506D01*
X175713027Y-94883664D01*
X174509841Y-94586457D01*
X173248114Y-94424875D01*
X172447918Y-94368125D01*
X172971269Y-94913080D01*
X173515011Y-95532823D01*
X174101421Y-96390830D01*
X174527704Y-97293357D01*
X174803079Y-98261046D01*
X174936763Y-99314538D01*
X174944562Y-99482613D01*
X174915119Y-100295861D01*
X174775882Y-101032835D01*
X174534009Y-101673453D01*
X174196658Y-102197631D01*
X173770987Y-102585285D01*
X173530894Y-102736533D01*
X173319508Y-102826935D01*
X173087372Y-102857988D01*
X172757180Y-102849868D01*
X172745096Y-102849245D01*
X172440634Y-102838616D01*
X172271605Y-102852954D01*
X172198881Y-102902258D01*
X172183334Y-102996528D01*
X171539781Y-102996528D01*
X171536854Y-102976934D01*
X171653200Y-102601523D01*
X171715580Y-102493279D01*
X171836897Y-102363876D01*
X172012415Y-102291784D01*
X172282553Y-102263944D01*
X172687727Y-102267300D01*
X172710368Y-102267968D01*
X173029533Y-102269735D01*
X173236559Y-102240879D01*
X173391822Y-102164439D01*
X173555700Y-102023451D01*
X173828498Y-101703166D01*
X174115094Y-101138317D01*
X174286716Y-100442700D01*
X174342567Y-99618749D01*
X174337486Y-99394381D01*
X174240380Y-98589259D01*
X174012250Y-97772027D01*
X173642972Y-96903383D01*
X173508909Y-96634660D01*
X173306106Y-96268040D01*
X173104333Y-95976430D01*
X172862572Y-95703696D01*
X172539805Y-95393706D01*
X172297641Y-95166983D01*
X172076786Y-94941956D01*
X171948580Y-94772960D01*
X171889158Y-94626870D01*
X171874654Y-94470567D01*
X171903675Y-94250371D01*
X172060776Y-93992315D01*
X172073417Y-93981619D01*
X172309510Y-93881612D01*
X172683481Y-93830451D01*
X173166980Y-93825395D01*
X173731654Y-93863705D01*
X174349155Y-93942639D01*
X174991132Y-94059459D01*
X175629233Y-94211422D01*
X176235108Y-94395791D01*
X176725348Y-94564458D01*
X176725348Y-93677703D01*
X176725213Y-93491616D01*
X176721378Y-93154730D01*
X176706807Y-92951143D01*
X176674323Y-92850403D01*
X176616750Y-92822054D01*
X176526911Y-92835645D01*
X176345279Y-92872010D01*
X176051188Y-92926046D01*
X175711112Y-92985465D01*
X175379883Y-93043832D01*
X175010439Y-93112833D01*
X174729125Y-93169516D01*
X174689843Y-93177520D01*
X174399693Y-93223140D01*
X174018902Y-93268811D01*
X173619163Y-93305735D01*
X173340755Y-93325641D01*
X173072122Y-93334084D01*
X172902624Y-93313658D01*
X172787733Y-93257341D01*
X172682921Y-93158112D01*
X172560269Y-92994973D01*
X172490914Y-92731613D01*
X172512687Y-92667833D01*
X173310817Y-92667833D01*
X173325626Y-92706939D01*
X173447717Y-92684306D01*
X173704754Y-92596634D01*
X173880972Y-92525362D01*
X174054532Y-92430136D01*
X174103151Y-92368450D01*
X174017830Y-92358993D01*
X173789572Y-92420453D01*
X173647160Y-92472662D01*
X173431255Y-92568992D01*
X173324760Y-92641936D01*
X173310817Y-92667833D01*
X172512687Y-92667833D01*
X172583440Y-92460577D01*
X172841653Y-92173458D01*
X173269356Y-91861847D01*
X173440880Y-91755080D01*
X173989524Y-91436499D01*
X174571912Y-91126124D01*
X175128537Y-90854809D01*
X175599897Y-90653410D01*
X175788191Y-90578939D01*
X176013533Y-90464762D01*
X176105324Y-90347953D01*
X176062735Y-90201353D01*
X175884938Y-89997804D01*
X175571102Y-89710146D01*
X175483345Y-89632324D01*
X175117928Y-89307891D01*
X174748554Y-88979456D01*
X174443236Y-88707482D01*
X174156002Y-88456796D01*
X173858655Y-88206784D01*
X173625797Y-88020603D01*
X173342564Y-87744236D01*
X173155134Y-87373251D01*
X173141620Y-87068420D01*
X173814931Y-87068420D01*
X173819217Y-87084524D01*
X173914185Y-87212892D01*
X174118067Y-87429779D01*
X174410042Y-87715250D01*
X174769293Y-88049371D01*
X175175000Y-88412204D01*
X175606344Y-88783815D01*
X175991879Y-89114144D01*
X176393363Y-89466953D01*
X176771424Y-89807223D01*
X177103956Y-90114513D01*
X177368849Y-90368380D01*
X177543997Y-90548381D01*
X177607292Y-90634074D01*
X177600743Y-90654508D01*
X177500788Y-90693403D01*
X177383292Y-90717007D01*
X177128731Y-90797591D01*
X176788403Y-90919864D01*
X176403335Y-91067606D01*
X176014553Y-91224594D01*
X175663085Y-91374606D01*
X175389958Y-91501420D01*
X175236197Y-91588815D01*
X175067971Y-91702418D01*
X174950170Y-91751736D01*
X174841429Y-91774506D01*
X174637958Y-91852478D01*
X174417278Y-91957838D01*
X174240244Y-92060988D01*
X174167709Y-92132326D01*
X174169109Y-92139398D01*
X174261570Y-92168312D01*
X174454341Y-92148847D01*
X174740973Y-92090971D01*
X174476390Y-92325302D01*
X174429914Y-92368450D01*
X174371814Y-92422390D01*
X174311477Y-92504530D01*
X174388195Y-92495259D01*
X174465068Y-92471760D01*
X174710451Y-92414994D01*
X175005556Y-92361318D01*
X175278637Y-92317697D01*
X175596414Y-92263687D01*
X175882166Y-92208699D01*
X176186631Y-92142089D01*
X176560546Y-92053211D01*
X177054650Y-91931422D01*
X177103346Y-91919339D01*
X177508010Y-91819555D01*
X177841986Y-91738271D01*
X178071793Y-91683571D01*
X178163952Y-91663542D01*
X178170039Y-91670103D01*
X178230571Y-91787721D01*
X178342007Y-92030080D01*
X178491008Y-92367655D01*
X178664235Y-92770919D01*
X178720917Y-92902753D01*
X178890114Y-93275239D01*
X179034738Y-93563165D01*
X179140947Y-93740207D01*
X179194897Y-93780040D01*
X179251216Y-93802364D01*
X179342913Y-93957841D01*
X179449360Y-94213126D01*
X179455777Y-94230629D01*
X179580820Y-94534093D01*
X179689846Y-94737211D01*
X179769243Y-94824644D01*
X179805402Y-94781050D01*
X179784712Y-94591091D01*
X179782557Y-94580006D01*
X179766196Y-94380335D01*
X179798213Y-94273893D01*
X179821172Y-94216708D01*
X179831600Y-94024318D01*
X179813922Y-93752174D01*
X179795112Y-93565303D01*
X179790499Y-93386791D01*
X179823957Y-93329695D01*
X179902933Y-93361318D01*
X179977079Y-93389874D01*
X180147203Y-93361988D01*
X180402774Y-93223825D01*
X180483345Y-93174498D01*
X180803242Y-92997483D01*
X181099202Y-92856412D01*
X181174995Y-92823571D01*
X181379715Y-92721511D01*
X181484757Y-92647799D01*
X181570574Y-92580188D01*
X181770268Y-92453495D01*
X182036370Y-92299208D01*
X182062498Y-92284600D01*
X182295596Y-92156517D01*
X182455867Y-92097136D01*
X182569564Y-92126002D01*
X182662938Y-92262661D01*
X182762241Y-92526658D01*
X182893724Y-92937539D01*
X183010609Y-93274715D01*
X183146244Y-93615662D01*
X183263648Y-93863580D01*
X183312940Y-93948826D01*
X183384809Y-94052350D01*
X183391977Y-94022743D01*
X183368663Y-93936596D01*
X183367244Y-93861084D01*
X183423255Y-93923073D01*
X183525501Y-94107068D01*
X183662784Y-94397569D01*
X183787018Y-94658471D01*
X183895157Y-94852561D01*
X183958698Y-94926736D01*
X183959334Y-94926726D01*
X184002260Y-94844445D01*
X184015091Y-94625177D01*
X184001257Y-94304716D01*
X183964187Y-93918857D01*
X183907314Y-93503395D01*
X183834066Y-93094125D01*
X183747875Y-92726842D01*
X183745193Y-92717042D01*
X183643198Y-92334019D01*
X183587378Y-92081807D01*
X183574618Y-91922675D01*
X183601805Y-91818889D01*
X183665825Y-91732716D01*
X183708457Y-91683318D01*
X183754907Y-91583125D01*
X183705857Y-91469408D01*
X183546485Y-91286777D01*
X183478686Y-91205861D01*
X183321717Y-90944945D01*
X183281940Y-90849682D01*
X183736806Y-90849682D01*
X183939270Y-91068144D01*
X183952536Y-91082771D01*
X184078378Y-91263919D01*
X184115659Y-91403041D01*
X184162460Y-91516471D01*
X184318931Y-91634097D01*
X184383539Y-91669298D01*
X184475636Y-91751052D01*
X184533662Y-91884377D01*
X184571753Y-92110815D01*
X184604045Y-92471904D01*
X184612723Y-92573899D01*
X184652911Y-92906627D01*
X184701389Y-93159675D01*
X184749525Y-93284802D01*
X184763929Y-93303635D01*
X184817542Y-93472234D01*
X184839237Y-93715952D01*
X184840555Y-93765375D01*
X184884551Y-94017999D01*
X184971529Y-94189682D01*
X185061114Y-94349307D01*
X185103820Y-94585463D01*
X185103832Y-94590128D01*
X185109047Y-94625177D01*
X185129168Y-94760415D01*
X185192015Y-94794444D01*
X185232875Y-94708009D01*
X185268451Y-94488972D01*
X185283334Y-94193927D01*
X185283628Y-94146649D01*
X185288825Y-93875742D01*
X185305829Y-93754710D01*
X185343950Y-93760087D01*
X185412501Y-93868403D01*
X185432224Y-93901793D01*
X185480448Y-93960009D01*
X185511713Y-93931708D01*
X185529810Y-93794423D01*
X185538531Y-93525690D01*
X185541667Y-93103043D01*
X185544792Y-92117196D01*
X186258481Y-92438162D01*
X186529470Y-92562831D01*
X186788199Y-92700555D01*
X186961611Y-92835753D01*
X187094506Y-93005687D01*
X187231682Y-93247619D01*
X187298601Y-93373242D01*
X187537028Y-93811900D01*
X187713418Y-94116368D01*
X187840518Y-94306145D01*
X187931074Y-94400729D01*
X187997832Y-94419618D01*
X188035986Y-94416517D01*
X188102431Y-94468907D01*
X188132991Y-94553045D01*
X188236716Y-94711442D01*
X188267834Y-94750447D01*
X188333067Y-94810920D01*
X188347246Y-94745402D01*
X188321608Y-94529861D01*
X188272215Y-94177083D01*
X188406481Y-94529861D01*
X188441313Y-94622014D01*
X188512945Y-94816780D01*
X188542076Y-94904687D01*
X188542218Y-94905740D01*
X188612830Y-94926736D01*
X188618302Y-94926561D01*
X188688197Y-94844132D01*
X188673614Y-94617800D01*
X188576311Y-94257035D01*
X188398049Y-93771306D01*
X188271754Y-93449914D01*
X188182050Y-93193001D01*
X188149063Y-93031448D01*
X188166060Y-92929145D01*
X188226312Y-92849978D01*
X188309167Y-92743958D01*
X188367015Y-92589289D01*
X188365471Y-92575652D01*
X188280736Y-92444932D01*
X188111119Y-92289323D01*
X187918901Y-92159094D01*
X187766367Y-92104514D01*
X187712446Y-92040756D01*
X187589061Y-91838447D01*
X187409358Y-91517824D01*
X187184696Y-91099680D01*
X186926437Y-90604806D01*
X186645942Y-90053993D01*
X186396580Y-89561580D01*
X186130063Y-89042252D01*
X185967168Y-88729899D01*
X187450774Y-88729899D01*
X187594020Y-89160435D01*
X187607771Y-89201443D01*
X187716945Y-89516254D01*
X187856954Y-89908094D01*
X188001026Y-90301889D01*
X188264787Y-91012806D01*
X187985172Y-91128927D01*
X187893718Y-91169485D01*
X187795156Y-91239530D01*
X187853138Y-91283071D01*
X187989722Y-91365325D01*
X188141803Y-91536415D01*
X188270956Y-91684386D01*
X188399888Y-91751736D01*
X188469904Y-91820615D01*
X188586114Y-92036069D01*
X188733732Y-92375464D01*
X188901851Y-92815679D01*
X188914734Y-92851209D01*
X189085961Y-93303775D01*
X189212522Y-93594514D01*
X189298000Y-93730717D01*
X189345975Y-93719672D01*
X189375260Y-93654988D01*
X189417173Y-93660088D01*
X189464316Y-93824306D01*
X189559901Y-94233066D01*
X189664360Y-94617203D01*
X189747389Y-94844132D01*
X189755160Y-94865371D01*
X189839197Y-94999181D01*
X189895407Y-95075554D01*
X189954515Y-95268957D01*
X189981212Y-95396715D01*
X190084772Y-95593386D01*
X190135778Y-95656246D01*
X190183137Y-95677799D01*
X190192262Y-95575441D01*
X190171356Y-95323611D01*
X190154618Y-95097581D01*
X190166237Y-95001238D01*
X190211289Y-95059028D01*
X190249150Y-95136642D01*
X190289414Y-95181191D01*
X190301094Y-95069438D01*
X190299650Y-95038598D01*
X190240842Y-94838426D01*
X190121844Y-94603397D01*
X190072060Y-94519371D01*
X190006895Y-94363655D01*
X190055698Y-94328404D01*
X190107771Y-94327760D01*
X190141963Y-94277285D01*
X190142251Y-94150262D01*
X190105955Y-93923167D01*
X190030396Y-93572473D01*
X189912895Y-93074653D01*
X189860341Y-92843445D01*
X189799736Y-92524773D01*
X189772510Y-92300565D01*
X189784318Y-92208905D01*
X189815671Y-92209614D01*
X189984401Y-92254647D01*
X190255905Y-92348469D01*
X190588964Y-92477331D01*
X190708840Y-92526780D01*
X191064772Y-92691893D01*
X191273079Y-92827915D01*
X191352253Y-92946204D01*
X191381168Y-93067231D01*
X191465058Y-93329373D01*
X191578920Y-93634102D01*
X191705149Y-93939588D01*
X191826137Y-94204001D01*
X191924279Y-94385514D01*
X191981969Y-94442296D01*
X191998576Y-94440150D01*
X192059569Y-94529597D01*
X192111795Y-94729728D01*
X192132003Y-94836785D01*
X192196131Y-95074592D01*
X192261854Y-95214521D01*
X192314341Y-95232166D01*
X192338757Y-95103125D01*
X192344148Y-95046456D01*
X192381078Y-95025955D01*
X192461800Y-95143432D01*
X192597122Y-95411806D01*
X192849794Y-95940972D01*
X192871256Y-95588194D01*
X192875166Y-95521089D01*
X192886065Y-95286226D01*
X192888166Y-95147222D01*
X192886868Y-95135176D01*
X192859353Y-94986955D01*
X192804059Y-94722253D01*
X192731146Y-94386770D01*
X192650776Y-94026206D01*
X192573112Y-93686263D01*
X192508314Y-93412641D01*
X192466546Y-93251042D01*
X192494578Y-93134495D01*
X192661693Y-93009431D01*
X192828715Y-92938603D01*
X192902604Y-92921237D01*
X192946895Y-93035956D01*
X193131480Y-93356423D01*
X193396437Y-93704486D01*
X193700703Y-94023439D01*
X194166470Y-94444634D01*
X194581849Y-94804058D01*
X194906762Y-95066189D01*
X195124432Y-95216961D01*
X195200441Y-95264556D01*
X195415835Y-95410810D01*
X195707422Y-95616393D01*
X196034376Y-95852778D01*
X196188043Y-95964070D01*
X196579198Y-96239271D01*
X196957765Y-96496079D01*
X197259593Y-96690625D01*
X197499184Y-96842169D01*
X197852643Y-97077041D01*
X198146604Y-97284333D01*
X198305451Y-97393596D01*
X198499800Y-97500620D01*
X198606262Y-97523100D01*
X198620384Y-97520691D01*
X198749198Y-97573995D01*
X198966691Y-97709645D01*
X199234654Y-97904453D01*
X199555061Y-98148646D01*
X199811539Y-98333802D01*
X199941310Y-98410391D01*
X199948933Y-98381009D01*
X199838968Y-98248249D01*
X199829303Y-98237584D01*
X199702931Y-98075755D01*
X199704103Y-98021539D01*
X199820718Y-98075530D01*
X200040674Y-98238324D01*
X200213838Y-98373725D01*
X200494494Y-98586807D01*
X200840301Y-98845503D01*
X201212023Y-99120269D01*
X201248867Y-99147296D01*
X201588621Y-99393005D01*
X201873889Y-99593252D01*
X202075690Y-99728055D01*
X202165044Y-99777430D01*
X202161275Y-99762095D01*
X202066472Y-99648799D01*
X201870345Y-99439657D01*
X201590319Y-99151869D01*
X201243820Y-98802633D01*
X200848275Y-98409147D01*
X200421109Y-97988612D01*
X199979749Y-97558225D01*
X199541622Y-97135185D01*
X199124152Y-96736691D01*
X198744768Y-96379943D01*
X198420894Y-96082138D01*
X198229259Y-95909998D01*
X197749913Y-95486145D01*
X197212141Y-95017634D01*
X196668668Y-94550243D01*
X196172223Y-94129753D01*
X195712207Y-93742214D01*
X195301613Y-93390243D01*
X195003041Y-93124517D01*
X194802993Y-92931947D01*
X194687972Y-92799442D01*
X194644481Y-92713914D01*
X194659023Y-92662274D01*
X194767547Y-92640924D01*
X195018969Y-92669819D01*
X195379648Y-92746685D01*
X195820303Y-92863683D01*
X196311652Y-93012975D01*
X196824412Y-93186723D01*
X197329301Y-93377087D01*
X198486379Y-93838936D01*
X198867220Y-93690033D01*
X199170182Y-93524278D01*
X199407885Y-93243121D01*
X199441975Y-93178987D01*
X199533526Y-92976049D01*
X199551062Y-92809735D01*
X199490350Y-92616637D01*
X199347157Y-92333345D01*
X199337534Y-92315379D01*
X198981116Y-91760101D01*
X198490459Y-91151289D01*
X197889672Y-90510645D01*
X197202864Y-89859873D01*
X196454144Y-89220677D01*
X195667621Y-88614760D01*
X194867405Y-88063827D01*
X194077605Y-87589580D01*
X193937175Y-87510525D01*
X193658970Y-87343323D01*
X193466192Y-87212216D01*
X193394098Y-87140373D01*
X193336993Y-87100802D01*
X193165284Y-87092870D01*
X192939526Y-87118219D01*
X192721806Y-87169388D01*
X192574212Y-87238913D01*
X192562414Y-87249829D01*
X192463666Y-87419325D01*
X192395357Y-87660488D01*
X192385106Y-87828872D01*
X192431549Y-88055396D01*
X192559197Y-88318166D01*
X192782969Y-88646260D01*
X193117780Y-89068757D01*
X193283337Y-89269938D01*
X193520838Y-89559667D01*
X193708062Y-89789303D01*
X193768538Y-89858849D01*
X193923698Y-89994057D01*
X194026582Y-90022598D01*
X194034053Y-90019019D01*
X194158207Y-90048053D01*
X194326669Y-90170370D01*
X194540626Y-90371372D01*
X194540626Y-90085617D01*
X194514077Y-89838657D01*
X194445286Y-89621718D01*
X194386594Y-89487887D01*
X194403493Y-89417408D01*
X194525612Y-89447871D01*
X194763702Y-89582464D01*
X195128519Y-89824378D01*
X195189925Y-89867496D01*
X195482687Y-90090590D01*
X195822737Y-90371093D01*
X196187272Y-90687660D01*
X196553489Y-91018942D01*
X196898584Y-91343595D01*
X197199756Y-91640270D01*
X197434200Y-91887622D01*
X197579114Y-92064304D01*
X197611695Y-92148968D01*
X197577209Y-92156827D01*
X197402603Y-92137054D01*
X197121158Y-92076814D01*
X196773848Y-91984168D01*
X196200854Y-91828496D01*
X195500069Y-91668124D01*
X194879242Y-91560767D01*
X194366138Y-91511017D01*
X193988522Y-91523467D01*
X193844354Y-91553371D01*
X193458816Y-91713717D01*
X193142522Y-91957626D01*
X192948927Y-92247849D01*
X192871719Y-92450920D01*
X192503565Y-92241805D01*
X192135411Y-92032689D01*
X191703473Y-90591345D01*
X191595092Y-90239058D01*
X191443188Y-89774286D01*
X191303656Y-89378799D01*
X191188454Y-89086055D01*
X191109541Y-88929514D01*
X191049949Y-88859275D01*
X190828532Y-88742313D01*
X190567497Y-88795734D01*
X190270113Y-89019190D01*
X190012448Y-89271847D01*
X190426718Y-90391934D01*
X190468553Y-90505856D01*
X190610142Y-90905136D01*
X190719032Y-91233977D01*
X190785167Y-91460924D01*
X190798487Y-91554523D01*
X190797701Y-91555203D01*
X190695148Y-91552637D01*
X190478574Y-91511627D01*
X190200785Y-91445597D01*
X189914586Y-91367970D01*
X189672782Y-91292168D01*
X189528178Y-91231615D01*
X189500941Y-91193230D01*
X189419926Y-91009982D01*
X189306255Y-90705222D01*
X189171009Y-90309338D01*
X189025273Y-89852717D01*
X188943789Y-89593387D01*
X188801026Y-89160077D01*
X188674277Y-88800960D01*
X188574918Y-88547675D01*
X188514326Y-88431861D01*
X188282599Y-88283689D01*
X188022308Y-88292021D01*
X187738440Y-88472869D01*
X187450774Y-88729899D01*
X185967168Y-88729899D01*
X185894308Y-88590190D01*
X185701266Y-88228057D01*
X185562891Y-87978517D01*
X185491135Y-87864236D01*
X185422056Y-87768037D01*
X185368404Y-87622885D01*
X185341032Y-87565738D01*
X185193043Y-87458173D01*
X184972368Y-87360833D01*
X184742852Y-87299492D01*
X184568339Y-87299921D01*
X184425483Y-87391600D01*
X184269951Y-87568807D01*
X184259115Y-87585658D01*
X184208587Y-87683853D01*
X184178734Y-87805231D01*
X184169434Y-87980204D01*
X184180562Y-88239185D01*
X184211995Y-88612586D01*
X184263611Y-89130819D01*
X184286624Y-89352920D01*
X184337067Y-89825808D01*
X184382839Y-90237119D01*
X184419657Y-90548872D01*
X184443234Y-90723089D01*
X184458782Y-90825743D01*
X184445166Y-90924016D01*
X184343554Y-90944468D01*
X184110955Y-90911472D01*
X183736806Y-90849682D01*
X183281940Y-90849682D01*
X183164542Y-90568524D01*
X182994036Y-90047154D01*
X182892842Y-89701401D01*
X182804252Y-89377598D01*
X182749849Y-89152262D01*
X182738687Y-89060388D01*
X182748452Y-89057066D01*
X182867806Y-89086947D01*
X183067317Y-89172292D01*
X183141204Y-89207701D01*
X183310622Y-89267122D01*
X183429300Y-89225529D01*
X183579296Y-89065866D01*
X183621977Y-89015940D01*
X183730352Y-88867872D01*
X183731268Y-88769941D01*
X183633352Y-88656875D01*
X183475723Y-88532525D01*
X183207548Y-88359860D01*
X182878748Y-88169342D01*
X182531285Y-87983367D01*
X182207119Y-87824326D01*
X181948214Y-87714613D01*
X181796529Y-87676623D01*
X181714645Y-87673149D01*
X181472871Y-87632161D01*
X181185209Y-87559011D01*
X180747257Y-87468662D01*
X180249326Y-87435310D01*
X179780810Y-87465536D01*
X179409272Y-87559326D01*
X179269538Y-87635762D01*
X179021279Y-87900706D01*
X178885880Y-88254780D01*
X178885928Y-88650872D01*
X178957912Y-88842143D01*
X179169386Y-89159645D01*
X179490489Y-89524635D01*
X179897136Y-89912726D01*
X180365243Y-90299529D01*
X180870724Y-90660656D01*
X181126976Y-90832074D01*
X181400114Y-91021701D01*
X181585685Y-91159117D01*
X181653393Y-91222569D01*
X181628906Y-91252988D01*
X181494446Y-91375451D01*
X181269156Y-91565028D01*
X180983296Y-91795833D01*
X180822440Y-91926202D01*
X180541947Y-92167635D01*
X180328395Y-92369955D01*
X180218534Y-92499357D01*
X180142416Y-92613991D01*
X179988542Y-92783184D01*
X179957026Y-92809710D01*
X179901216Y-92879461D01*
X179988542Y-92896809D01*
X180010359Y-92897643D01*
X180076350Y-92917116D01*
X179988542Y-92986458D01*
X179808085Y-93065680D01*
X179673120Y-93008639D01*
X179590093Y-92788021D01*
X179549613Y-92620040D01*
X179462758Y-92307598D01*
X179360330Y-91972792D01*
X179190254Y-91444195D01*
X179413009Y-91281929D01*
X179569307Y-91123637D01*
X179635765Y-90966004D01*
X179632210Y-90932245D01*
X179531787Y-90742227D01*
X179326765Y-90535366D01*
X179062501Y-90359641D01*
X179013775Y-90323731D01*
X178879394Y-90140088D01*
X178771660Y-89885599D01*
X178765507Y-89865077D01*
X178690228Y-89617495D01*
X178578287Y-89253003D01*
X178443768Y-88817341D01*
X178300757Y-88356250D01*
X178267590Y-88249559D01*
X178137354Y-87830398D01*
X178027275Y-87475786D01*
X177948098Y-87220350D01*
X177910566Y-87098716D01*
X177872353Y-87024974D01*
X177694145Y-86895553D01*
X177451810Y-86845417D01*
X177219372Y-86896249D01*
X177036655Y-87014178D01*
X176909360Y-87176400D01*
X176876101Y-87394214D01*
X176932998Y-87701079D01*
X177076167Y-88130451D01*
X177130553Y-88281691D01*
X177235776Y-88601178D01*
X177301996Y-88842836D01*
X177316716Y-88963396D01*
X177300229Y-88967320D01*
X177182500Y-88896005D01*
X176972232Y-88727804D01*
X176692360Y-88481694D01*
X176365819Y-88176650D01*
X175883830Y-87718835D01*
X175294116Y-87174976D01*
X174818901Y-86759252D01*
X174456103Y-86469935D01*
X174203638Y-86305296D01*
X174059423Y-86263610D01*
X173985962Y-86284582D01*
X173955708Y-86347934D01*
X174037684Y-86495248D01*
X174110955Y-86645239D01*
X174111354Y-86751610D01*
X174102286Y-86817610D01*
X174177190Y-86957637D01*
X174238411Y-87039718D01*
X174219561Y-87077971D01*
X174057466Y-87046282D01*
X173887955Y-87027343D01*
X173814931Y-87068420D01*
X173141620Y-87068420D01*
X173137220Y-86969166D01*
X173201606Y-86610973D01*
X173308926Y-86176195D01*
X173438174Y-85879129D01*
X173606118Y-85696166D01*
X173829524Y-85603701D01*
X174125157Y-85578125D01*
X174211620Y-85579809D01*
X174369933Y-85601327D01*
X174526303Y-85663513D01*
X174713605Y-85786124D01*
X174964716Y-85988916D01*
X175312512Y-86291646D01*
X175548028Y-86498459D01*
X175816186Y-86726199D01*
X175994944Y-86859765D01*
X176109217Y-86913900D01*
X176183922Y-86903351D01*
X176243975Y-86842861D01*
X176319819Y-86731141D01*
X176369765Y-86621603D01*
X176391712Y-86577595D01*
X176534133Y-86462709D01*
X176763308Y-86334516D01*
X177025641Y-86221133D01*
X177267534Y-86150673D01*
X177628320Y-86145894D01*
X178016624Y-86266794D01*
X178341293Y-86494901D01*
X178550206Y-86803680D01*
X178686912Y-87151699D01*
X179051095Y-86961288D01*
X179133154Y-86922246D01*
X179598206Y-86794042D01*
X180173195Y-86752168D01*
X180824103Y-86792963D01*
X181516917Y-86912766D01*
X182217620Y-87107914D01*
X182892198Y-87374748D01*
X183370506Y-87596516D01*
X183493088Y-87359022D01*
X183579105Y-87210917D01*
X183861100Y-86873052D01*
X184194310Y-86627104D01*
X184540116Y-86497140D01*
X184859901Y-86507226D01*
X185045665Y-86573595D01*
X185492338Y-86837952D01*
X185901576Y-87247692D01*
X186290272Y-87818298D01*
X186727070Y-88564617D01*
X186873165Y-88324383D01*
X187084116Y-88040723D01*
X187443719Y-87740081D01*
X187842590Y-87570676D01*
X188250079Y-87538565D01*
X188635533Y-87649803D01*
X188968303Y-87910446D01*
X189017229Y-87969355D01*
X189205240Y-88249647D01*
X189332973Y-88519973D01*
X189435660Y-88831116D01*
X189785368Y-88491736D01*
X189935279Y-88360840D01*
X190322113Y-88129487D01*
X190719136Y-88017098D01*
X191092688Y-88025184D01*
X191409109Y-88155252D01*
X191634740Y-88408814D01*
X191645969Y-88429464D01*
X191733752Y-88555310D01*
X191767685Y-88531987D01*
X191745892Y-88377233D01*
X191666496Y-88108786D01*
X191593912Y-87860608D01*
X191575762Y-87624917D01*
X191631992Y-87380709D01*
X191716697Y-87171950D01*
X191987833Y-86773773D01*
X192346258Y-86485268D01*
X192759214Y-86328559D01*
X193193942Y-86325773D01*
X193214371Y-86329907D01*
X193535370Y-86442617D01*
X193962379Y-86657283D01*
X194473128Y-86957986D01*
X195045346Y-87328806D01*
X195656763Y-87753824D01*
X196285106Y-88217119D01*
X196908106Y-88702771D01*
X197503492Y-89194862D01*
X198048993Y-89677470D01*
X198522338Y-90134676D01*
X198629037Y-90244592D01*
X199231219Y-90910132D01*
X199684497Y-91504519D01*
X199994282Y-92038807D01*
X200165985Y-92524046D01*
X200205016Y-92971289D01*
X200116787Y-93391589D01*
X200049645Y-93557096D01*
X199801989Y-93952255D01*
X199452968Y-94235011D01*
X198968837Y-94436069D01*
X198940021Y-94444733D01*
X198608348Y-94528876D01*
X198370737Y-94546209D01*
X198164790Y-94501835D01*
X198139218Y-94493217D01*
X197963808Y-94453731D01*
X197892015Y-94474172D01*
X197893205Y-94477468D01*
X197970577Y-94567906D01*
X198158926Y-94765330D01*
X198444448Y-95055889D01*
X198813339Y-95425731D01*
X199251793Y-95861007D01*
X199746007Y-96347863D01*
X200282177Y-96872449D01*
X200330940Y-96920026D01*
X200871297Y-97450560D01*
X201373612Y-97949595D01*
X201823061Y-98401976D01*
X202204821Y-98792550D01*
X202504067Y-99106162D01*
X202705974Y-99327659D01*
X202795719Y-99441887D01*
X202878791Y-99650991D01*
X202902577Y-99777430D01*
X202919098Y-99865254D01*
G37*
G36*
X191949089Y-102456611D02*
G01*
X192159376Y-102599653D01*
X192216903Y-102646472D01*
X192301661Y-102744924D01*
X192232511Y-102768433D01*
X192005036Y-102720454D01*
X191881089Y-102660334D01*
X191806598Y-102545269D01*
X191837817Y-102441830D01*
X191949089Y-102456611D01*
G37*
G36*
X192267965Y-102338459D02*
G01*
X192335765Y-102423264D01*
X192334754Y-102443223D01*
X192296872Y-102511458D01*
X192282725Y-102507400D01*
X192203473Y-102423264D01*
X192189692Y-102389101D01*
X192242365Y-102335069D01*
X192267965Y-102338459D01*
G37*
G36*
X184050906Y-97148951D02*
G01*
X184119099Y-97197050D01*
X184133681Y-97284300D01*
X184160811Y-97430355D01*
X184239082Y-97713013D01*
X184357761Y-98097536D01*
X184506079Y-98551666D01*
X184673264Y-99043148D01*
X184848548Y-99539725D01*
X185021161Y-100009140D01*
X185180333Y-100419136D01*
X185221353Y-100522404D01*
X185341310Y-100843259D01*
X185425092Y-101096619D01*
X185456598Y-101234935D01*
X185450366Y-101293260D01*
X185398346Y-101364930D01*
X185362284Y-101349809D01*
X185205169Y-101252305D01*
X184958310Y-101084548D01*
X184654552Y-100870167D01*
X184326741Y-100632792D01*
X184007726Y-100396053D01*
X183730352Y-100183581D01*
X183527467Y-100019006D01*
X183489806Y-99986259D01*
X183163651Y-99672194D01*
X182838243Y-99312897D01*
X182546374Y-98948951D01*
X182320839Y-98620934D01*
X182194430Y-98369428D01*
X182149605Y-98215742D01*
X182133384Y-97999543D01*
X182205130Y-97790435D01*
X182352500Y-97555398D01*
X182612460Y-97336471D01*
X182976668Y-97205175D01*
X183476697Y-97145494D01*
X183607031Y-97139221D01*
X183892439Y-97132257D01*
X184050906Y-97148951D01*
G37*
G36*
X181487848Y-97175694D02*
G01*
X181443751Y-97219792D01*
X181399654Y-97175694D01*
X181443751Y-97131597D01*
X181487848Y-97175694D01*
G37*
G36*
X181664237Y-97087500D02*
G01*
X181620140Y-97131597D01*
X181576042Y-97087500D01*
X181620140Y-97043403D01*
X181664237Y-97087500D01*
G37*
G36*
X191982987Y-94265278D02*
G01*
X191938890Y-94309375D01*
X191894792Y-94265278D01*
X191938890Y-94221181D01*
X191982987Y-94265278D01*
G37*
G36*
X185433205Y-89866071D02*
G01*
X185529028Y-90014156D01*
X185665425Y-90254038D01*
X185822233Y-90546942D01*
X185979291Y-90854094D01*
X186116437Y-91136721D01*
X186213510Y-91356048D01*
X186250348Y-91473301D01*
X186229844Y-91491534D01*
X186090986Y-91483763D01*
X185864259Y-91424062D01*
X185478170Y-91296957D01*
X185416533Y-90590360D01*
X185408587Y-90494047D01*
X185389365Y-90175045D01*
X185386259Y-89941500D01*
X185400243Y-89838415D01*
X185433205Y-89866071D01*
G37*
G36*
X179194792Y-93471528D02*
G01*
X179150695Y-93515625D01*
X179106598Y-93471528D01*
X179150695Y-93427431D01*
X179194792Y-93471528D01*
G37*
G36*
X179106598Y-93162847D02*
G01*
X179100233Y-93209537D01*
X179047802Y-93221643D01*
X179037247Y-93208717D01*
X179047802Y-93104051D01*
X179074329Y-93090253D01*
X179106598Y-93162847D01*
G37*
G36*
X180341320Y-92854167D02*
G01*
X180297223Y-92898264D01*
X180253126Y-92854167D01*
X180297223Y-92810069D01*
X180341320Y-92854167D01*
G37*
G36*
X180784800Y-88372627D02*
G01*
X181417026Y-88532639D01*
X181671860Y-89326389D01*
X181731984Y-89516837D01*
X181832196Y-89850914D01*
X181901563Y-90105194D01*
X181927757Y-90235862D01*
X181925709Y-90248646D01*
X181843506Y-90250149D01*
X181655476Y-90147393D01*
X181381148Y-89953949D01*
X181040051Y-89683384D01*
X180651712Y-89349266D01*
X180479352Y-89190884D01*
X180152840Y-88847040D01*
X179977819Y-88582335D01*
X179953899Y-88399656D01*
X180080684Y-88301888D01*
X180357782Y-88291917D01*
X180784800Y-88372627D01*
G37*
G36*
X152966657Y-51632101D02*
G01*
X153187721Y-52420214D01*
X153237055Y-52596092D01*
X153330897Y-52970665D01*
X153405890Y-53283470D01*
X153453341Y-53497531D01*
X153465686Y-53580284D01*
X153416247Y-53580434D01*
X153239196Y-53562184D01*
X152981333Y-53527540D01*
X152710526Y-53496512D01*
X152145690Y-53464073D01*
X151498939Y-53456960D01*
X150824106Y-53474345D01*
X150175026Y-53515404D01*
X149605533Y-53579310D01*
X149051208Y-53667718D01*
X147945197Y-53879152D01*
X146703524Y-54157689D01*
X145321726Y-54504417D01*
X144371838Y-54763304D01*
X143795339Y-54920426D01*
X142119900Y-55406807D01*
X141728197Y-55523488D01*
X140943157Y-55756878D01*
X140289243Y-55950348D01*
X139744891Y-56110046D01*
X139288537Y-56242118D01*
X138898617Y-56352713D01*
X138553568Y-56447975D01*
X138231824Y-56534054D01*
X137911823Y-56617096D01*
X137572000Y-56703247D01*
X136695037Y-56914852D01*
X134583677Y-57345983D01*
X132518757Y-57651760D01*
X130460000Y-57838612D01*
X129876176Y-57872088D01*
X128872646Y-57910680D01*
X127991887Y-57914701D01*
X127205371Y-57882632D01*
X126484570Y-57812955D01*
X125800955Y-57704151D01*
X125126000Y-57554701D01*
X125000790Y-57522812D01*
X123544347Y-57075223D01*
X122035961Y-56473208D01*
X120474616Y-55716156D01*
X118859293Y-54803457D01*
X118311976Y-54453190D01*
X123178667Y-54453190D01*
X123178710Y-54458833D01*
X123232597Y-54629958D01*
X123400653Y-54778506D01*
X123701144Y-54915723D01*
X124152333Y-55052860D01*
X124499186Y-55138965D01*
X125046260Y-55246484D01*
X125482737Y-55292404D01*
X125793385Y-55275532D01*
X125962976Y-55194676D01*
X125984456Y-55142599D01*
X126885508Y-55142599D01*
X126927481Y-55387890D01*
X127086511Y-55614339D01*
X127388114Y-55788782D01*
X127553103Y-55842545D01*
X127966025Y-55895317D01*
X128395405Y-55866218D01*
X128757871Y-55757172D01*
X128960709Y-55617242D01*
X129232489Y-55304828D01*
X129461648Y-54896984D01*
X129619972Y-54436923D01*
X129676362Y-54120231D01*
X129717131Y-53599271D01*
X129715301Y-53043347D01*
X129671793Y-52518974D01*
X129587528Y-52092667D01*
X129485677Y-51812406D01*
X129242431Y-51400166D01*
X128937894Y-51103028D01*
X128622079Y-50944153D01*
X132054733Y-50944153D01*
X132078676Y-51147148D01*
X132154225Y-51351507D01*
X132297709Y-51587511D01*
X132525456Y-51885442D01*
X132853796Y-52275579D01*
X132990920Y-52436214D01*
X133140837Y-52627626D01*
X133205152Y-52757305D01*
X133200302Y-52866197D01*
X133142725Y-52995246D01*
X133039898Y-53228706D01*
X132912566Y-53581439D01*
X132906975Y-53599271D01*
X132787790Y-53979430D01*
X132680357Y-54371941D01*
X132605054Y-54708235D01*
X132576667Y-54937575D01*
X132613399Y-55214956D01*
X132705841Y-55483538D01*
X132747846Y-55558046D01*
X132891281Y-55697564D01*
X133114416Y-55733333D01*
X133198514Y-55730075D01*
X133408332Y-55676366D01*
X133573220Y-55539954D01*
X133706621Y-55299237D01*
X133821976Y-54932616D01*
X133932729Y-54418493D01*
X133994214Y-54099315D01*
X134064133Y-53748288D01*
X134119801Y-53482071D01*
X134152873Y-53341500D01*
X134152956Y-53341219D01*
X134237762Y-53205715D01*
X134358738Y-53228223D01*
X134508270Y-53403192D01*
X134678748Y-53725068D01*
X134820711Y-54008589D01*
X135084087Y-54418135D01*
X135363600Y-54733952D01*
X135641685Y-54944103D01*
X135900777Y-55036652D01*
X136123312Y-54999663D01*
X136291725Y-54821199D01*
X136310688Y-54763304D01*
X136302927Y-54629011D01*
X136240526Y-54421874D01*
X136115087Y-54116397D01*
X135918215Y-53687082D01*
X135743641Y-53303619D01*
X135502711Y-52695250D01*
X135335999Y-52127107D01*
X135226926Y-51537565D01*
X135158911Y-50865000D01*
X135132649Y-50550687D01*
X135072660Y-50093282D01*
X134992500Y-49774277D01*
X134892884Y-49586250D01*
X135931739Y-49586250D01*
X135987767Y-49885317D01*
X136035299Y-49964503D01*
X136229319Y-50108582D01*
X136462341Y-50116260D01*
X136679373Y-49980007D01*
X136711026Y-49947935D01*
X136953383Y-49823633D01*
X137222657Y-49840451D01*
X137463020Y-49997167D01*
X137590690Y-50154967D01*
X137855630Y-50618879D01*
X138064036Y-51180697D01*
X138200430Y-51792961D01*
X138249333Y-52408215D01*
X138242650Y-52743123D01*
X138214153Y-52960752D01*
X138151291Y-53109483D01*
X138041515Y-53239515D01*
X137864298Y-53372018D01*
X137539563Y-53447333D01*
X137361598Y-53465181D01*
X137121816Y-53577898D01*
X137000900Y-53764586D01*
X137003812Y-53990409D01*
X137135515Y-54220533D01*
X137400972Y-54420123D01*
X137785335Y-54538675D01*
X138206594Y-54510850D01*
X138616638Y-54332649D01*
X138988178Y-54011103D01*
X139033608Y-53957481D01*
X139236193Y-53644316D01*
X139368196Y-53271758D01*
X139438651Y-52805052D01*
X139456594Y-52209443D01*
X139419949Y-51664287D01*
X139284424Y-50967873D01*
X139062380Y-50308859D01*
X138767774Y-49719528D01*
X138414564Y-49232162D01*
X138312340Y-49141433D01*
X140088710Y-49141433D01*
X140110115Y-49786898D01*
X140171251Y-50470756D01*
X140272024Y-51161333D01*
X140358938Y-51633551D01*
X140473205Y-52172416D01*
X140483262Y-52209443D01*
X140584857Y-52583499D01*
X140701880Y-52890659D01*
X140832260Y-53117759D01*
X140983981Y-53288660D01*
X141045450Y-53340814D01*
X141320737Y-53493393D01*
X141583118Y-53525850D01*
X141788400Y-53430400D01*
X141831645Y-53370973D01*
X141884548Y-53122561D01*
X141847073Y-52760013D01*
X141720448Y-52303696D01*
X141644043Y-52072452D01*
X141586267Y-51875794D01*
X141572281Y-51793663D01*
X141637285Y-51780179D01*
X141829866Y-51754428D01*
X142101667Y-51724180D01*
X142609667Y-51671918D01*
X142838504Y-52050440D01*
X142918626Y-52169902D01*
X143133937Y-52421844D01*
X143346504Y-52599165D01*
X143504761Y-52693793D01*
X143645682Y-52755486D01*
X143748876Y-52740547D01*
X143876728Y-52655619D01*
X143971262Y-52556505D01*
X144012693Y-52420214D01*
X143993796Y-52229829D01*
X143908742Y-51967415D01*
X143751700Y-51615039D01*
X143516842Y-51154768D01*
X143198338Y-50568667D01*
X142931315Y-50083369D01*
X142663519Y-49591924D01*
X142421405Y-49143041D01*
X142223908Y-48771826D01*
X142089960Y-48513389D01*
X142087884Y-48509270D01*
X141780777Y-47977319D01*
X141468263Y-47580908D01*
X141159691Y-47327723D01*
X141009875Y-47275833D01*
X143629605Y-47275833D01*
X143655922Y-47493815D01*
X143721007Y-47807205D01*
X143828994Y-48249635D01*
X143839765Y-48292033D01*
X143970131Y-48779892D01*
X144132305Y-49353461D01*
X144306678Y-49944725D01*
X144473642Y-50485667D01*
X144593433Y-50857341D01*
X144726907Y-51245923D01*
X144839046Y-51526049D01*
X144944476Y-51729065D01*
X145057820Y-51886322D01*
X145193703Y-52029167D01*
X145289570Y-52115926D01*
X145589384Y-52305189D01*
X145848590Y-52330448D01*
X146067878Y-52191833D01*
X146075546Y-52183225D01*
X146157305Y-52057821D01*
X146195736Y-51896074D01*
X146190305Y-51666291D01*
X146140480Y-51336778D01*
X146045726Y-50875843D01*
X145883451Y-50133264D01*
X146236226Y-49982806D01*
X146590157Y-49840103D01*
X146930601Y-49722975D01*
X147171985Y-49664635D01*
X147287789Y-49672900D01*
X147303904Y-49694575D01*
X147389995Y-49838216D01*
X147524349Y-50079245D01*
X147685678Y-50379838D01*
X147718302Y-50441312D01*
X147898019Y-50757529D01*
X148051712Y-50966767D01*
X148215623Y-51110692D01*
X148425993Y-51230971D01*
X148617687Y-51313604D01*
X148904509Y-51360177D01*
X149113763Y-51264636D01*
X149260191Y-51023310D01*
X149279725Y-50968179D01*
X149303867Y-50858852D01*
X149303578Y-50727587D01*
X149273442Y-50546511D01*
X149208045Y-50287748D01*
X149101970Y-49923425D01*
X148949803Y-49425667D01*
X148828473Y-49011242D01*
X148678794Y-48459977D01*
X148531515Y-47882264D01*
X148405840Y-47351333D01*
X148302686Y-46910690D01*
X148193539Y-46514367D01*
X148088182Y-46238043D01*
X147973769Y-46056027D01*
X147837458Y-45942625D01*
X147666404Y-45872144D01*
X147555725Y-45858103D01*
X147394805Y-45920802D01*
X147187157Y-46101243D01*
X147109816Y-46184582D01*
X146865369Y-46586527D01*
X146745773Y-47084328D01*
X146747448Y-47690931D01*
X146798088Y-48242195D01*
X146309204Y-48431764D01*
X146078108Y-48517822D01*
X145856023Y-48592227D01*
X145738993Y-48620553D01*
X145707797Y-48596842D01*
X145610419Y-48452055D01*
X145475945Y-48204925D01*
X145323682Y-47889436D01*
X145256952Y-47748789D01*
X145067999Y-47391770D01*
X144878537Y-47082022D01*
X144721018Y-46874216D01*
X144661495Y-46815070D01*
X144374714Y-46630330D01*
X144098098Y-46600820D01*
X143856544Y-46723641D01*
X143674946Y-46995899D01*
X143637926Y-47119630D01*
X143629605Y-47275833D01*
X141009875Y-47275833D01*
X140864410Y-47225450D01*
X140591771Y-47281774D01*
X140531660Y-47330058D01*
X140393131Y-47511661D01*
X140261663Y-47757083D01*
X140165483Y-48092394D01*
X140107134Y-48566040D01*
X140088710Y-49141433D01*
X138312340Y-49141433D01*
X138016705Y-48879042D01*
X137927805Y-48821763D01*
X137682948Y-48695113D01*
X137433713Y-48635953D01*
X137098314Y-48621333D01*
X136962832Y-48622739D01*
X136686527Y-48646143D01*
X136490633Y-48712145D01*
X136310973Y-48838442D01*
X136196204Y-48951351D01*
X136006700Y-49257170D01*
X135931739Y-49586250D01*
X134892884Y-49586250D01*
X134886334Y-49573886D01*
X134748329Y-49472318D01*
X134709980Y-49460298D01*
X134457685Y-49473346D01*
X134307651Y-49558042D01*
X134208124Y-49614226D01*
X134013006Y-49855957D01*
X133955832Y-50039277D01*
X133915771Y-50365045D01*
X133905031Y-50764037D01*
X133924699Y-51185808D01*
X133975862Y-51579911D01*
X134029831Y-51871488D01*
X133493749Y-51405288D01*
X133430831Y-51350691D01*
X133079110Y-51053019D01*
X132818216Y-50851931D01*
X132620482Y-50729943D01*
X132458242Y-50669572D01*
X132303828Y-50653333D01*
X132130104Y-50684392D01*
X132058917Y-50801500D01*
X132054733Y-50944153D01*
X128622079Y-50944153D01*
X128594490Y-50930274D01*
X128234642Y-50891192D01*
X127880773Y-50995065D01*
X127555308Y-51251178D01*
X127406399Y-51463626D01*
X127399671Y-51486240D01*
X127332258Y-51712810D01*
X127365459Y-51917884D01*
X127489679Y-52048868D01*
X127688599Y-52075783D01*
X127945898Y-51968650D01*
X128059462Y-51911614D01*
X128317327Y-51897740D01*
X128551004Y-52032101D01*
X128728429Y-52301075D01*
X128829234Y-52694305D01*
X128846700Y-53158355D01*
X128787412Y-53641286D01*
X128660523Y-54097251D01*
X128475184Y-54480402D01*
X128240550Y-54744894D01*
X128123541Y-54824134D01*
X127989741Y-54870773D01*
X127815416Y-54861754D01*
X127539299Y-54802072D01*
X127508355Y-54794749D01*
X127189968Y-54741398D01*
X126997570Y-54772453D01*
X126904853Y-54901620D01*
X126885508Y-55142599D01*
X125984456Y-55142599D01*
X126013039Y-55073300D01*
X126074701Y-54816334D01*
X126136908Y-54466330D01*
X126191763Y-54062379D01*
X126236514Y-53688376D01*
X126284167Y-53313333D01*
X126324306Y-53021200D01*
X126351292Y-52854667D01*
X126386399Y-52664561D01*
X126440255Y-52273729D01*
X126478382Y-51865589D01*
X126497851Y-51486240D01*
X126495738Y-51181786D01*
X126469117Y-50998326D01*
X126355949Y-50788677D01*
X126182981Y-50639990D01*
X126003639Y-50627075D01*
X125915877Y-50699053D01*
X125876121Y-50731659D01*
X125729696Y-51001686D01*
X125598393Y-51413481D01*
X125485933Y-51951947D01*
X125396040Y-52601989D01*
X125332437Y-53348511D01*
X125321786Y-53511245D01*
X125288867Y-53899981D01*
X125251084Y-54153606D01*
X125203577Y-54297826D01*
X125141485Y-54358352D01*
X125102676Y-54365225D01*
X124910485Y-54358164D01*
X124618125Y-54321137D01*
X124271846Y-54259406D01*
X124072584Y-54221811D01*
X123659905Y-54171919D01*
X123382955Y-54192151D01*
X123227340Y-54285057D01*
X123178667Y-54453190D01*
X118311976Y-54453190D01*
X117188976Y-53734502D01*
X115462646Y-52508678D01*
X114156517Y-51495551D01*
X117167333Y-51495551D01*
X117227386Y-51794111D01*
X117436808Y-52138173D01*
X117777059Y-52456302D01*
X118227928Y-52725068D01*
X118444780Y-52813318D01*
X118773139Y-52902268D01*
X119072209Y-52937865D01*
X119299629Y-52916234D01*
X119413040Y-52833500D01*
X119413676Y-52831743D01*
X119451271Y-52713724D01*
X119506566Y-52533597D01*
X120555860Y-52533597D01*
X120565702Y-52790973D01*
X120652942Y-53308668D01*
X120824123Y-53714264D01*
X121071677Y-53986448D01*
X121099311Y-54004118D01*
X121369882Y-54093695D01*
X121721899Y-54119290D01*
X122089415Y-54081231D01*
X122406483Y-53979844D01*
X122642689Y-53827171D01*
X122866477Y-53584905D01*
X123067997Y-53241545D01*
X123260224Y-52774619D01*
X123456132Y-52161654D01*
X123497364Y-52019096D01*
X123652269Y-51451454D01*
X123749873Y-51018122D01*
X123791628Y-50699053D01*
X123778986Y-50474200D01*
X123713400Y-50323519D01*
X123596323Y-50226961D01*
X123517690Y-50192509D01*
X123319920Y-50191484D01*
X123147045Y-50335896D01*
X122992204Y-50633693D01*
X122848533Y-51092822D01*
X122797246Y-51290477D01*
X122627500Y-51931841D01*
X122487407Y-52429772D01*
X122369539Y-52801108D01*
X122266467Y-53062686D01*
X122170764Y-53231344D01*
X122075003Y-53323919D01*
X121971755Y-53357249D01*
X121853593Y-53348171D01*
X121742669Y-53300567D01*
X121599523Y-53099405D01*
X121526347Y-52755690D01*
X121523535Y-52277057D01*
X121591476Y-51671141D01*
X121730562Y-50945577D01*
X121748454Y-50862248D01*
X121806128Y-50528027D01*
X121831941Y-50255587D01*
X121820491Y-50095971D01*
X121735946Y-49932339D01*
X121561499Y-49796254D01*
X121360074Y-49806997D01*
X121157541Y-49959829D01*
X120979765Y-50250010D01*
X120931533Y-50368738D01*
X120784140Y-50848383D01*
X120664362Y-51412360D01*
X120584251Y-51995741D01*
X120555860Y-52533597D01*
X119506566Y-52533597D01*
X119528607Y-52461796D01*
X119637450Y-52103086D01*
X119769567Y-51664723D01*
X119916725Y-51173838D01*
X119999285Y-50895543D01*
X120146251Y-50381550D01*
X120245079Y-50000119D01*
X120300010Y-49732024D01*
X120315288Y-49558042D01*
X120295155Y-49458947D01*
X120273850Y-49427625D01*
X120106237Y-49283516D01*
X119835321Y-49116590D01*
X119506678Y-48950450D01*
X119165887Y-48808700D01*
X118858524Y-48714945D01*
X118793153Y-48701503D01*
X118399426Y-48689093D01*
X118100256Y-48816537D01*
X117893850Y-49084523D01*
X117795200Y-49339222D01*
X117770145Y-49628008D01*
X117852544Y-49962203D01*
X117866354Y-50002722D01*
X117900110Y-50168849D01*
X117846269Y-50294845D01*
X117680170Y-50450589D01*
X117467241Y-50661297D01*
X117240920Y-51048335D01*
X117167333Y-51495551D01*
X114156517Y-51495551D01*
X113679287Y-51125377D01*
X111837881Y-49583988D01*
X111664476Y-49432498D01*
X111349291Y-49149938D01*
X111095884Y-48913111D01*
X110926708Y-48743284D01*
X110864214Y-48661723D01*
X110870182Y-48653791D01*
X110995789Y-48626756D01*
X111275096Y-48602862D01*
X111695865Y-48582740D01*
X112245857Y-48567019D01*
X112912833Y-48556328D01*
X113328903Y-48550627D01*
X113856877Y-48539901D01*
X114307591Y-48526663D01*
X114658029Y-48511765D01*
X114885171Y-48496058D01*
X114966000Y-48480394D01*
X114952111Y-48444215D01*
X114872891Y-48276620D01*
X114732972Y-47993482D01*
X114543189Y-47616428D01*
X114314379Y-47167084D01*
X114057379Y-46667076D01*
X113898776Y-46356841D01*
X113663705Y-45884566D01*
X113467740Y-45475150D01*
X113320900Y-45150298D01*
X113233202Y-44931718D01*
X113214664Y-44841114D01*
X113310653Y-44845110D01*
X113508655Y-44921154D01*
X113763452Y-45053423D01*
X114145789Y-45264757D01*
X114796558Y-45598382D01*
X115527376Y-45949383D01*
X116291011Y-46295899D01*
X117040230Y-46616075D01*
X117727802Y-46888050D01*
X118175666Y-47052294D01*
X120161964Y-47685918D01*
X122119309Y-48153534D01*
X124049927Y-48455418D01*
X125956042Y-48591844D01*
X127839880Y-48563089D01*
X129703666Y-48369426D01*
X130200483Y-48289577D01*
X131201169Y-48088000D01*
X132183694Y-47829520D01*
X133185976Y-47502324D01*
X134245936Y-47094602D01*
X135401491Y-46594540D01*
X136729897Y-46013484D01*
X138394446Y-45349421D01*
X139961328Y-44802902D01*
X141441551Y-44371147D01*
X142846122Y-44051375D01*
X144186049Y-43840804D01*
X145472339Y-43736655D01*
X146716000Y-43736146D01*
X146718349Y-43736242D01*
X147560997Y-43791444D01*
X148286928Y-43887165D01*
X148945596Y-44031992D01*
X149586455Y-44234511D01*
X150128576Y-44430333D01*
X150627387Y-45530230D01*
X150702706Y-45697071D01*
X151239663Y-46931414D01*
X151745765Y-48172490D01*
X152209784Y-49389898D01*
X152620491Y-50553235D01*
X152718552Y-50858852D01*
X152966657Y-51632101D01*
G37*
G36*
X141143663Y-48949598D02*
G01*
X141325169Y-49160364D01*
X141583211Y-49520204D01*
X141733008Y-49744498D01*
X141900949Y-50010439D01*
X142008339Y-50199472D01*
X142036791Y-50280765D01*
X142011370Y-50294403D01*
X141859250Y-50340380D01*
X141626526Y-50392476D01*
X141523033Y-50412724D01*
X141309085Y-50454009D01*
X141197206Y-50474723D01*
X141142558Y-50441852D01*
X141092235Y-50297453D01*
X141047639Y-50021455D01*
X141004642Y-49595000D01*
X141003961Y-49586979D01*
X140988353Y-49277746D01*
X140994929Y-49031303D01*
X141022347Y-48900357D01*
X141039221Y-48888489D01*
X141143663Y-48949598D01*
G37*
G36*
X118384795Y-51027982D02*
G01*
X118625121Y-51096889D01*
X118850092Y-51190246D01*
X118984702Y-51321573D01*
X119010811Y-51521402D01*
X118947050Y-51832291D01*
X118921110Y-51918590D01*
X118841444Y-52103600D01*
X118769364Y-52177333D01*
X118736425Y-52171632D01*
X118574007Y-52111766D01*
X118352125Y-52007723D01*
X118258231Y-51956181D01*
X117988396Y-51743225D01*
X117859751Y-51517925D01*
X117879194Y-51300956D01*
X118053621Y-51112992D01*
X118081334Y-51095176D01*
X118227794Y-51026727D01*
X118384795Y-51027982D01*
G37*
G36*
X119061190Y-49585873D02*
G01*
X119284639Y-49639290D01*
X119464299Y-49707451D01*
X119538000Y-49772892D01*
X119533172Y-49792955D01*
X119484983Y-49929384D01*
X119401807Y-50143620D01*
X119362948Y-50232948D01*
X119259725Y-50412566D01*
X119176966Y-50484000D01*
X119147456Y-50477633D01*
X118998283Y-50400639D01*
X118800308Y-50264324D01*
X118690195Y-50173529D01*
X118558960Y-50003959D01*
X118538316Y-49819824D01*
X118544907Y-49774453D01*
X118620317Y-49625453D01*
X118806268Y-49567331D01*
X118856119Y-49564666D01*
X119061190Y-49585873D01*
G37*
G36*
X151576586Y-94117913D02*
G01*
X151679558Y-94142529D01*
X151762350Y-94173940D01*
X151796314Y-94204097D01*
X151794089Y-94213343D01*
X151771882Y-94276213D01*
X151733552Y-94374939D01*
X151715645Y-94416104D01*
X151668076Y-94498877D01*
X151629939Y-94531796D01*
X151616339Y-94528862D01*
X151547596Y-94493381D01*
X151456363Y-94430563D01*
X151405620Y-94388722D01*
X151345143Y-94310579D01*
X151335630Y-94225725D01*
X151338667Y-94204816D01*
X151373418Y-94136153D01*
X151459110Y-94109368D01*
X151482083Y-94108140D01*
X151576586Y-94117913D01*
G37*
G36*
X151264883Y-94782479D02*
G01*
X151375632Y-94814234D01*
X151479305Y-94857255D01*
X151541338Y-94917775D01*
X151553370Y-95009862D01*
X151523987Y-95153128D01*
X151512033Y-95192898D01*
X151475320Y-95278156D01*
X151442104Y-95312134D01*
X151426925Y-95309507D01*
X151352078Y-95281919D01*
X151249828Y-95233973D01*
X151206559Y-95210221D01*
X151082211Y-95112084D01*
X151022927Y-95008259D01*
X151031887Y-94908274D01*
X151112268Y-94821654D01*
X151125039Y-94813444D01*
X151192532Y-94781901D01*
X151264883Y-94782479D01*
G37*
G36*
X161752841Y-93824699D02*
G01*
X161836484Y-93921826D01*
X161955397Y-94087651D01*
X162024428Y-94191012D01*
X162101820Y-94313566D01*
X162151309Y-94400677D01*
X162164420Y-94438140D01*
X162152705Y-94444424D01*
X162082604Y-94465612D01*
X161975358Y-94489619D01*
X161927665Y-94498950D01*
X161829072Y-94517975D01*
X161777515Y-94527521D01*
X161752331Y-94512373D01*
X161729141Y-94445830D01*
X161708590Y-94318642D01*
X161688776Y-94122119D01*
X161688462Y-94118423D01*
X161681269Y-93975919D01*
X161684300Y-93862351D01*
X161696935Y-93802007D01*
X161704711Y-93796538D01*
X161752841Y-93824699D01*
G37*
G36*
X167201225Y-95060875D02*
G01*
X167303098Y-95424061D01*
X167325832Y-95505111D01*
X167369078Y-95677725D01*
X167403636Y-95821875D01*
X167425503Y-95920520D01*
X167431192Y-95958655D01*
X167408409Y-95958725D01*
X167326819Y-95950314D01*
X167207988Y-95934349D01*
X167083192Y-95920051D01*
X166822899Y-95905102D01*
X166524857Y-95901824D01*
X166213874Y-95909835D01*
X165914759Y-95928757D01*
X165652320Y-95958207D01*
X165396871Y-95998948D01*
X164887188Y-96096383D01*
X164314988Y-96224740D01*
X163678215Y-96384523D01*
X163240478Y-96503826D01*
X162974811Y-96576232D01*
X162202719Y-96800371D01*
X162022211Y-96854141D01*
X161660441Y-96961694D01*
X161359099Y-97050851D01*
X161108245Y-97124444D01*
X160897944Y-97185307D01*
X160718257Y-97236272D01*
X160559248Y-97280172D01*
X160410979Y-97319840D01*
X160263513Y-97358108D01*
X160106913Y-97397809D01*
X159702783Y-97495322D01*
X158729805Y-97694001D01*
X157778230Y-97834911D01*
X156829494Y-97921018D01*
X156560450Y-97936445D01*
X156097994Y-97954230D01*
X155692114Y-97956083D01*
X155329664Y-97941304D01*
X154997498Y-97909195D01*
X154682468Y-97859055D01*
X154371429Y-97790184D01*
X154313729Y-97775488D01*
X153642557Y-97569226D01*
X152947448Y-97291800D01*
X152227934Y-96942928D01*
X151483546Y-96522330D01*
X151231326Y-96360916D01*
X153474041Y-96360916D01*
X153474061Y-96363516D01*
X153498893Y-96442376D01*
X153576338Y-96510831D01*
X153714813Y-96574065D01*
X153922735Y-96637262D01*
X154082575Y-96676942D01*
X154334683Y-96726489D01*
X154535824Y-96747651D01*
X154678980Y-96739876D01*
X154757132Y-96702615D01*
X154767031Y-96678616D01*
X155182262Y-96678616D01*
X155201605Y-96791654D01*
X155274890Y-96896008D01*
X155413878Y-96976396D01*
X155489910Y-97001172D01*
X155680196Y-97025491D01*
X155878067Y-97012081D01*
X156045102Y-96961830D01*
X156138576Y-96897346D01*
X156263820Y-96753376D01*
X156369424Y-96565430D01*
X156442384Y-96353420D01*
X156468370Y-96207479D01*
X156487158Y-95967405D01*
X156486314Y-95711219D01*
X156466265Y-95469572D01*
X156427433Y-95273117D01*
X156380497Y-95143965D01*
X156268402Y-94953993D01*
X156128062Y-94817062D01*
X155982523Y-94743848D01*
X157564394Y-94743848D01*
X157575427Y-94837394D01*
X157610242Y-94931569D01*
X157676364Y-95040327D01*
X157781317Y-95177622D01*
X157932626Y-95357409D01*
X157995816Y-95431434D01*
X158064903Y-95519643D01*
X158094541Y-95579403D01*
X158092305Y-95629583D01*
X158065773Y-95689052D01*
X158018387Y-95796638D01*
X157959708Y-95959188D01*
X157957132Y-95967405D01*
X157902208Y-96142594D01*
X157852699Y-96323474D01*
X157817998Y-96478449D01*
X157804916Y-96584135D01*
X157821843Y-96711960D01*
X157864443Y-96835731D01*
X157883800Y-96870066D01*
X157949900Y-96934360D01*
X158052727Y-96950844D01*
X158091481Y-96949342D01*
X158188172Y-96924592D01*
X158264157Y-96861729D01*
X158325632Y-96750799D01*
X158378791Y-96581850D01*
X158429830Y-96344927D01*
X158458164Y-96197840D01*
X158490384Y-96036077D01*
X158516038Y-95913396D01*
X158531278Y-95848617D01*
X158531317Y-95848487D01*
X158570398Y-95786043D01*
X158626147Y-95796415D01*
X158695056Y-95877046D01*
X158773617Y-96025376D01*
X158839038Y-96156031D01*
X158960409Y-96344762D01*
X159089217Y-96490300D01*
X159217367Y-96587143D01*
X159336764Y-96629793D01*
X159439315Y-96612747D01*
X159516925Y-96530505D01*
X159525663Y-96503826D01*
X159522087Y-96441940D01*
X159493330Y-96346485D01*
X159435525Y-96205712D01*
X159344800Y-96007871D01*
X159264351Y-95831160D01*
X159153323Y-95550806D01*
X159076498Y-95288988D01*
X159026234Y-95017310D01*
X158994890Y-94707372D01*
X158982788Y-94562528D01*
X158955143Y-94351742D01*
X158918203Y-94204735D01*
X158872298Y-94118087D01*
X159351032Y-94118087D01*
X159376852Y-94255906D01*
X159398756Y-94292397D01*
X159488166Y-94358792D01*
X159595550Y-94362331D01*
X159695564Y-94299542D01*
X159710150Y-94284762D01*
X159821836Y-94227480D01*
X159945925Y-94235230D01*
X160056692Y-94307449D01*
X160115526Y-94380168D01*
X160237618Y-94593953D01*
X160333658Y-94852855D01*
X160396512Y-95135004D01*
X160419048Y-95418532D01*
X160415968Y-95572867D01*
X160402836Y-95673157D01*
X160373867Y-95741696D01*
X160323279Y-95801619D01*
X160241613Y-95862680D01*
X160091965Y-95897388D01*
X160009953Y-95905612D01*
X159899455Y-95957556D01*
X159843733Y-96043587D01*
X159845075Y-96147653D01*
X159905768Y-96253701D01*
X160028098Y-96345678D01*
X160205224Y-96400310D01*
X160399352Y-96387488D01*
X160588313Y-96305367D01*
X160759530Y-96157190D01*
X160780465Y-96132479D01*
X160873822Y-95988163D01*
X160934653Y-95816477D01*
X160967121Y-95601405D01*
X160975390Y-95326931D01*
X160958502Y-95075707D01*
X160896048Y-94754779D01*
X160793724Y-94451086D01*
X160657961Y-94179505D01*
X160495191Y-93954912D01*
X160448084Y-93913102D01*
X161266687Y-93913102D01*
X161276551Y-94210551D01*
X161304725Y-94525693D01*
X161351164Y-94843931D01*
X161391216Y-95061543D01*
X161443874Y-95309868D01*
X161448508Y-95326931D01*
X161495326Y-95499307D01*
X161549254Y-95640856D01*
X161609337Y-95745510D01*
X161679255Y-95824266D01*
X161707581Y-95848300D01*
X161834441Y-95918613D01*
X161955355Y-95933571D01*
X162049954Y-95889584D01*
X162069883Y-95862199D01*
X162094262Y-95747723D01*
X162076993Y-95580650D01*
X162018640Y-95370366D01*
X161983431Y-95263802D01*
X161956805Y-95173176D01*
X161950360Y-95135327D01*
X161980316Y-95129114D01*
X162069063Y-95117247D01*
X162194317Y-95103308D01*
X162428418Y-95079224D01*
X162533873Y-95253658D01*
X162570796Y-95308710D01*
X162670018Y-95424812D01*
X162767975Y-95506527D01*
X162840904Y-95550134D01*
X162905845Y-95578564D01*
X162953399Y-95571680D01*
X163012317Y-95532542D01*
X163055882Y-95486868D01*
X163074974Y-95424061D01*
X163066266Y-95336326D01*
X163027070Y-95215398D01*
X162954701Y-95053013D01*
X162846471Y-94840906D01*
X162699695Y-94570813D01*
X162576643Y-94347174D01*
X162453235Y-94120702D01*
X162341662Y-93913843D01*
X162250649Y-93742776D01*
X162188922Y-93623681D01*
X162187965Y-93621782D01*
X162046442Y-93376644D01*
X161902426Y-93193966D01*
X161760227Y-93077291D01*
X161691187Y-93053378D01*
X162898436Y-93053378D01*
X162910564Y-93153831D01*
X162940557Y-93298250D01*
X162990321Y-93502135D01*
X162995284Y-93521673D01*
X163055360Y-93746493D01*
X163130095Y-94010811D01*
X163210451Y-94283282D01*
X163287393Y-94532565D01*
X163342596Y-94703843D01*
X163404105Y-94882913D01*
X163455782Y-95012003D01*
X163504367Y-95105559D01*
X163556599Y-95178028D01*
X163619218Y-95243855D01*
X163663397Y-95283836D01*
X163801560Y-95371054D01*
X163921010Y-95382694D01*
X164022064Y-95318816D01*
X164025598Y-95314849D01*
X164063275Y-95257059D01*
X164080985Y-95182522D01*
X164078482Y-95076631D01*
X164055521Y-94924782D01*
X164011856Y-94712369D01*
X163937075Y-94370167D01*
X164099644Y-94300831D01*
X164262745Y-94235070D01*
X164419632Y-94181094D01*
X164530869Y-94154209D01*
X164584235Y-94158017D01*
X164591661Y-94168006D01*
X164631335Y-94234200D01*
X164693249Y-94345273D01*
X164767594Y-94483795D01*
X164782628Y-94512125D01*
X164865447Y-94657846D01*
X164936274Y-94754270D01*
X165011809Y-94820595D01*
X165108753Y-94876023D01*
X165197091Y-94914102D01*
X165329267Y-94935565D01*
X165425698Y-94891536D01*
X165493176Y-94780326D01*
X165502178Y-94754920D01*
X165513303Y-94704539D01*
X165513170Y-94644048D01*
X165499283Y-94560603D01*
X165469145Y-94441358D01*
X165420263Y-94273467D01*
X165350140Y-94044085D01*
X165294228Y-93853106D01*
X165225251Y-93599067D01*
X165157381Y-93332840D01*
X165099466Y-93088171D01*
X165051929Y-92885110D01*
X165001632Y-92702472D01*
X164953080Y-92575134D01*
X164900355Y-92491256D01*
X164837539Y-92438997D01*
X164758712Y-92406517D01*
X164707708Y-92400047D01*
X164633551Y-92428940D01*
X164537861Y-92512093D01*
X164502220Y-92550498D01*
X164389571Y-92735726D01*
X164334458Y-92965127D01*
X164335230Y-93244668D01*
X164358566Y-93498707D01*
X164133274Y-93586066D01*
X164026778Y-93625724D01*
X163924435Y-93660012D01*
X163870504Y-93673065D01*
X163856128Y-93662138D01*
X163811253Y-93595416D01*
X163749284Y-93481532D01*
X163679116Y-93336145D01*
X163648365Y-93271330D01*
X163561290Y-93106806D01*
X163473980Y-92964065D01*
X163401391Y-92868301D01*
X163373961Y-92841045D01*
X163241804Y-92755912D01*
X163114332Y-92742312D01*
X163003016Y-92798912D01*
X162919330Y-92924376D01*
X162902271Y-92981395D01*
X162898436Y-93053378D01*
X161691187Y-93053378D01*
X161624153Y-93030160D01*
X161498512Y-93056116D01*
X161470812Y-93078367D01*
X161406973Y-93162055D01*
X161346389Y-93275153D01*
X161302067Y-93429674D01*
X161275178Y-93647944D01*
X161266687Y-93913102D01*
X160448084Y-93913102D01*
X160311846Y-93792184D01*
X160270878Y-93765788D01*
X160158041Y-93707424D01*
X160043186Y-93680162D01*
X159888624Y-93673425D01*
X159826190Y-93674072D01*
X159698861Y-93684858D01*
X159608587Y-93715273D01*
X159525795Y-93773475D01*
X159472905Y-93825507D01*
X159385576Y-93966437D01*
X159351032Y-94118087D01*
X158872298Y-94118087D01*
X158869279Y-94112389D01*
X158805682Y-94065584D01*
X158788010Y-94060044D01*
X158671745Y-94066057D01*
X158602604Y-94105088D01*
X158556739Y-94130979D01*
X158466824Y-94242376D01*
X158440476Y-94326855D01*
X158422015Y-94476978D01*
X158417065Y-94660846D01*
X158426129Y-94855210D01*
X158449706Y-95036824D01*
X158474577Y-95171192D01*
X158227534Y-94956353D01*
X158198540Y-94931193D01*
X158036457Y-94794017D01*
X157916229Y-94701350D01*
X157825108Y-94645134D01*
X157750342Y-94617313D01*
X157679184Y-94609830D01*
X157599127Y-94624143D01*
X157566322Y-94678110D01*
X157564394Y-94743848D01*
X155982523Y-94743848D01*
X155969811Y-94737453D01*
X155803983Y-94719442D01*
X155640910Y-94767310D01*
X155490926Y-94885335D01*
X155422304Y-94983237D01*
X155419203Y-94993658D01*
X155388138Y-95098068D01*
X155403438Y-95192572D01*
X155460682Y-95252934D01*
X155552350Y-95265337D01*
X155670921Y-95215967D01*
X155723255Y-95189683D01*
X155842086Y-95183289D01*
X155949772Y-95245207D01*
X156031534Y-95369158D01*
X156077989Y-95550370D01*
X156086038Y-95764218D01*
X156058716Y-95986767D01*
X156000241Y-96196889D01*
X155914832Y-96373456D01*
X155806706Y-96495342D01*
X155752784Y-96531858D01*
X155691125Y-96553351D01*
X155610791Y-96549194D01*
X155483548Y-96521691D01*
X155469289Y-96518317D01*
X155322566Y-96493731D01*
X155233904Y-96508042D01*
X155191177Y-96567566D01*
X155182262Y-96678616D01*
X154767031Y-96678616D01*
X154780203Y-96646681D01*
X154808618Y-96528264D01*
X154837285Y-96366971D01*
X154862564Y-96180819D01*
X154883187Y-96008467D01*
X154905147Y-95835636D01*
X154923644Y-95701013D01*
X154936080Y-95624269D01*
X154952258Y-95536663D01*
X154977077Y-95356556D01*
X154994646Y-95168473D01*
X155003619Y-94993658D01*
X155002645Y-94853357D01*
X154990377Y-94768813D01*
X154938226Y-94672200D01*
X154858517Y-94603681D01*
X154775871Y-94597730D01*
X154735428Y-94630899D01*
X154717107Y-94645925D01*
X154649630Y-94770362D01*
X154589122Y-94960129D01*
X154537297Y-95208270D01*
X154495871Y-95507828D01*
X154466561Y-95851848D01*
X154461653Y-95926840D01*
X154446483Y-96105981D01*
X154429072Y-96222859D01*
X154407179Y-96289320D01*
X154378565Y-96317212D01*
X154360680Y-96320379D01*
X154272113Y-96317125D01*
X154137385Y-96300062D01*
X153977810Y-96271615D01*
X153885984Y-96254290D01*
X153695809Y-96231298D01*
X153568183Y-96240621D01*
X153496471Y-96283435D01*
X153474041Y-96360916D01*
X151231326Y-96360916D01*
X150713814Y-96029723D01*
X149918271Y-95464828D01*
X149316368Y-94997949D01*
X150703841Y-94997949D01*
X150731515Y-95135534D01*
X150828022Y-95294088D01*
X150984820Y-95440691D01*
X151192594Y-95564547D01*
X151292526Y-95605215D01*
X151443844Y-95646205D01*
X151581664Y-95662610D01*
X151686466Y-95652642D01*
X151738728Y-95614515D01*
X151739022Y-95613705D01*
X151756347Y-95559319D01*
X151781828Y-95476311D01*
X152265374Y-95476311D01*
X152269909Y-95594917D01*
X152310112Y-95833487D01*
X152388997Y-96020397D01*
X152503077Y-96145828D01*
X152515812Y-96153971D01*
X152640499Y-96195250D01*
X152802719Y-96207045D01*
X152972081Y-96189507D01*
X153118195Y-96142785D01*
X153227046Y-96072428D01*
X153330174Y-95960785D01*
X153423041Y-95802554D01*
X153511625Y-95587381D01*
X153601905Y-95304909D01*
X153620905Y-95239214D01*
X153692290Y-94977628D01*
X153737269Y-94777935D01*
X153756511Y-94630899D01*
X153750685Y-94527280D01*
X153720461Y-94457842D01*
X153666509Y-94413345D01*
X153630272Y-94397469D01*
X153539134Y-94396996D01*
X153459468Y-94463546D01*
X153388113Y-94600779D01*
X153321905Y-94812359D01*
X153298271Y-94903445D01*
X153220047Y-95199004D01*
X153155488Y-95428465D01*
X153101170Y-95599588D01*
X153053672Y-95720131D01*
X153009569Y-95797853D01*
X152965440Y-95840515D01*
X152917860Y-95855874D01*
X152863407Y-95851691D01*
X152812291Y-95829754D01*
X152746324Y-95737052D01*
X152712603Y-95578658D01*
X152711307Y-95358090D01*
X152742616Y-95078866D01*
X152806711Y-94744505D01*
X152814956Y-94706104D01*
X152841534Y-94552085D01*
X152853429Y-94426537D01*
X152848153Y-94352981D01*
X152809192Y-94277575D01*
X152728802Y-94214863D01*
X152635979Y-94219814D01*
X152542646Y-94290243D01*
X152460722Y-94423967D01*
X152438495Y-94478680D01*
X152370572Y-94699715D01*
X152315375Y-94959612D01*
X152278457Y-95228451D01*
X152265374Y-95476311D01*
X151781828Y-95476311D01*
X151791985Y-95443223D01*
X151842143Y-95277919D01*
X151903027Y-95075908D01*
X151970842Y-94849694D01*
X152008888Y-94721447D01*
X152076614Y-94484584D01*
X152122157Y-94308810D01*
X152147471Y-94185264D01*
X152154511Y-94105088D01*
X152145233Y-94059422D01*
X152135415Y-94044988D01*
X152058174Y-93978578D01*
X151933328Y-93901653D01*
X151781880Y-93825091D01*
X151624833Y-93759769D01*
X151483191Y-93716564D01*
X151453066Y-93710369D01*
X151271625Y-93704650D01*
X151133759Y-93763380D01*
X151038641Y-93886876D01*
X150993180Y-94004249D01*
X150981634Y-94137330D01*
X151019606Y-94291337D01*
X151025970Y-94310009D01*
X151041526Y-94386566D01*
X151016715Y-94444628D01*
X150940171Y-94516400D01*
X150842047Y-94613500D01*
X150737751Y-94791859D01*
X150703841Y-94997949D01*
X149316368Y-94997949D01*
X149096446Y-94827362D01*
X148247872Y-94117044D01*
X148167962Y-94047233D01*
X148022715Y-93917021D01*
X147905938Y-93807884D01*
X147827976Y-93729623D01*
X147799178Y-93692037D01*
X147801928Y-93688382D01*
X147859811Y-93675923D01*
X147988524Y-93664913D01*
X148182427Y-93655640D01*
X148435879Y-93648395D01*
X148743242Y-93643468D01*
X148934979Y-93640841D01*
X149178285Y-93635898D01*
X149385987Y-93629798D01*
X149547479Y-93622932D01*
X149652153Y-93615694D01*
X149689401Y-93608476D01*
X149683001Y-93591803D01*
X149646494Y-93514570D01*
X149582015Y-93384092D01*
X149494557Y-93210335D01*
X149389115Y-93003264D01*
X149270682Y-92772845D01*
X149197593Y-92629880D01*
X149089265Y-92412241D01*
X148998959Y-92223570D01*
X148931291Y-92073869D01*
X148890877Y-91973141D01*
X148882334Y-91931388D01*
X148926569Y-91933230D01*
X149017814Y-91968273D01*
X149135232Y-92029226D01*
X149311424Y-92126615D01*
X149611318Y-92280360D01*
X149948100Y-92442111D01*
X150300005Y-92601796D01*
X150645268Y-92749342D01*
X150962121Y-92874677D01*
X151168510Y-92950365D01*
X152083855Y-93242358D01*
X152985857Y-93457849D01*
X153875543Y-93596966D01*
X154753937Y-93659835D01*
X155622065Y-93646584D01*
X156480953Y-93557338D01*
X156709900Y-93520541D01*
X157171046Y-93427649D01*
X157623822Y-93308534D01*
X158085704Y-93157752D01*
X158574164Y-92969862D01*
X159106679Y-92739419D01*
X159718847Y-92471651D01*
X160485920Y-92165631D01*
X161207986Y-91913779D01*
X161890116Y-91714813D01*
X162537384Y-91567453D01*
X163154862Y-91470416D01*
X163747622Y-91422421D01*
X164320738Y-91422186D01*
X164321820Y-91422231D01*
X164710138Y-91447669D01*
X165044668Y-91491780D01*
X165348201Y-91558521D01*
X165643528Y-91651847D01*
X165893354Y-91742088D01*
X166123220Y-92248953D01*
X166157930Y-92325838D01*
X166405375Y-92894660D01*
X166638602Y-93466584D01*
X166852436Y-94027602D01*
X167041701Y-94563702D01*
X167086890Y-94704539D01*
X167201225Y-95060875D01*
G37*
%TD*%
M02*
