%TF.GenerationSoftware,KiCad,Pcbnew,10.0.6*%
%TF.CreationDate,2026-09-02T23:36:13+03:00*%
%TF.ProjectId,solder-pcb,736f6c64-6572-42d7-9063-622e6b696361,rev?*%
%TF.SameCoordinates,Original*%
%TF.FileFunction,Profile,NP*%
%FSLAX46Y46*%
G04 Gerber Fmt 4.6, Leading zero omitted, Abs format (unit mm)*
G04 Created by KiCad (PCBNEW 10.0.6) date 2026-09-02 23:36:13*
%MOMM*%
%LPD*%
G01*
G04 APERTURE LIST*
%TA.AperFunction,Profile*%
%ADD10C,0.050000*%
%TD*%
%TA.AperFunction,Profile*%
%ADD11C,0.149999*%
%TD*%
G04 APERTURE END LIST*
D10*
X136052794Y-93364598D02*
G75*
G02*
X133187206Y-93364598I-1432794J0D01*
G01*
X133187206Y-93364598D02*
G75*
G02*
X136052794Y-93364598I1432794J0D01*
G01*
D11*
X176500000Y-77500000D02*
X179018203Y-79111600D01*
X180982600Y-80874400D01*
X183551204Y-83896000D01*
X184457800Y-84550599D01*
X186069403Y-85054599D01*
X192868603Y-86011600D01*
X198761203Y-87119199D01*
X202840600Y-88076199D01*
X207625000Y-89586999D01*
X210646597Y-90896799D01*
X213869793Y-92659599D01*
X216136593Y-94321599D01*
X217193799Y-95328399D01*
X217596997Y-96134198D01*
X217294598Y-97292798D01*
X215682995Y-98853999D01*
X214877194Y-99357999D01*
X214525000Y-100314397D01*
X214323401Y-100465597D01*
X213567999Y-99911799D01*
X213013592Y-101019997D01*
X212762198Y-101019997D01*
X211956396Y-100314397D01*
X211200995Y-101472997D01*
X210948996Y-101472997D01*
X210243994Y-100667198D01*
X210042395Y-100667198D01*
X209337393Y-101674599D01*
X208481201Y-100717598D01*
X208229193Y-100818397D01*
X207625000Y-101724998D01*
X207473800Y-101724998D01*
X206667999Y-100868797D01*
X205862198Y-101775398D01*
X205660599Y-101775398D01*
X205257995Y-101170599D01*
X204854797Y-100919197D01*
X204250599Y-101624197D01*
X203545602Y-101070399D01*
X203092000Y-101120798D01*
X202538202Y-101523397D01*
X202588601Y-101876198D01*
X203041600Y-102278799D01*
X203444803Y-102329198D01*
X204149800Y-102077197D01*
X204452194Y-102882999D01*
X205308395Y-102429998D01*
X205761398Y-103336597D01*
X205962997Y-103336597D01*
X206768799Y-102681997D01*
X207423401Y-103789597D01*
X207625000Y-103789597D01*
X208582001Y-103034198D01*
X209186194Y-104091998D01*
X209941595Y-103688798D01*
X210143194Y-103789597D01*
X210092795Y-104192798D01*
X209689596Y-104544997D01*
X207675400Y-105250598D01*
X204351404Y-105753998D01*
X192113202Y-106307799D01*
X190904202Y-106660597D01*
X190048001Y-107163998D01*
X189343004Y-107818597D01*
X187328203Y-110135797D01*
X184759604Y-112553197D01*
X181687602Y-114617798D01*
X180428802Y-115172198D01*
X179874400Y-115222597D01*
X179421402Y-114920199D01*
X179320602Y-114164797D01*
X181285003Y-110739997D01*
X181990001Y-108473797D01*
X182040400Y-107214397D01*
X181536403Y-106509398D01*
X174082600Y-106408598D01*
X170758600Y-106206997D01*
X167535403Y-105753998D01*
X165319603Y-105250598D01*
X163254404Y-104494597D01*
X161693204Y-103688798D01*
X160484804Y-102681997D01*
X159275804Y-100868797D01*
X158268403Y-100012598D01*
X156455204Y-99156397D01*
X154592204Y-98602597D01*
X152728605Y-98602597D01*
X149706403Y-99357999D01*
X149152603Y-99156397D01*
X148850204Y-98853999D01*
X148397204Y-97846598D01*
X147692204Y-97443997D01*
X144065805Y-97091199D01*
X141296205Y-97091199D01*
X139784805Y-97494397D01*
X138878205Y-98199399D01*
X136259805Y-101271398D01*
X134446606Y-103034198D01*
X132885405Y-104293597D01*
X129913606Y-105905198D01*
X129107806Y-106056397D01*
X128604406Y-105905198D01*
X128150806Y-105300398D01*
X128251606Y-104544997D01*
X130517806Y-101321798D01*
X132079606Y-98451398D01*
X133036005Y-95529999D01*
X133187206Y-93364598D01*
X132633405Y-91803399D01*
X128100406Y-84097599D01*
X127647406Y-82838199D01*
X127597006Y-82032400D01*
X127697806Y-81629799D01*
X128150806Y-81176200D01*
X129007006Y-81126400D01*
X130618606Y-81780999D01*
X132835005Y-83140600D01*
X134547405Y-84601000D01*
X136058206Y-86313399D01*
X139432605Y-91601799D01*
X140540205Y-92508398D01*
X142102004Y-92609199D01*
X148447603Y-91148198D01*
X149354204Y-90493599D01*
X149908005Y-89436399D01*
X150412005Y-88982799D01*
X151268203Y-88982799D01*
X154189004Y-89990199D01*
X155146004Y-89990199D01*
X163254404Y-87522399D01*
X167888202Y-86363799D01*
X169499800Y-85709200D01*
X171161802Y-84349599D01*
X172420602Y-82485999D01*
X173024800Y-80370400D01*
X172823800Y-77147200D01*
X173226404Y-76643800D01*
X173981801Y-76543000D01*
X176500000Y-77500000D01*
M02*
